<?xml version="1.0" encoding="UTF-8"?>
<!--Generator: Apple Native CoreSVG 341-->
<!DOCTYPE svg
PUBLIC "-//W3C//DTD SVG 1.1//EN"
       "http://www.w3.org/Graphics/SVG/1.1/DTD/svg11.dtd">
<svg version="1.1" xmlns="http://www.w3.org/2000/svg" xmlns:xlink="http://www.w3.org/1999/xlink" viewBox="0 0 3300 2200">
 <g id="Notes">
  <rect height="2200" id="artboard" style="fill:white;opacity:1" width="3300" x="0" y="0"/>
  <line style="fill:none;stroke:black;opacity:1;stroke-width:0.5;" x1="263" x2="3036" y1="292" y2="292"/>
  <text style="stroke:none;fill:black;font-family:sans-serif;font-size:13;font-weight:bold;" transform="matrix(1 0 0 1 263 322)">Weight/Scale Variations</text>
  <text style="stroke:none;fill:black;font-family:sans-serif;font-size:13;text-anchor:middle;" transform="matrix(1 0 0 1 559.711 322)">Ultralight</text>
  <text style="stroke:none;fill:black;font-family:sans-serif;font-size:13;text-anchor:middle;" transform="matrix(1 0 0 1 856.422 322)">Thin</text>
  <text style="stroke:none;fill:black;font-family:sans-serif;font-size:13;text-anchor:middle;" transform="matrix(1 0 0 1 1153.13 322)">Light</text>
  <text style="stroke:none;fill:black;font-family:sans-serif;font-size:13;text-anchor:middle;" transform="matrix(1 0 0 1 1449.84 322)">Regular</text>
  <text style="stroke:none;fill:black;font-family:sans-serif;font-size:13;text-anchor:middle;" transform="matrix(1 0 0 1 1746.56 322)">Medium</text>
  <text style="stroke:none;fill:black;font-family:sans-serif;font-size:13;text-anchor:middle;" transform="matrix(1 0 0 1 2043.27 322)">Semibold</text>
  <text style="stroke:none;fill:black;font-family:sans-serif;font-size:13;text-anchor:middle;" transform="matrix(1 0 0 1 2339.98 322)">Bold</text>
  <text style="stroke:none;fill:black;font-family:sans-serif;font-size:13;text-anchor:middle;" transform="matrix(1 0 0 1 2636.69 322)">Heavy</text>
  <text style="stroke:none;fill:black;font-family:sans-serif;font-size:13;text-anchor:middle;" transform="matrix(1 0 0 1 2933.4 322)">Black</text>
  <line style="fill:none;stroke:black;opacity:1;stroke-width:0.5;" x1="263" x2="3036" y1="1903" y2="1903"/>
  <g transform="matrix(0.2 0 0 0.2 263 1933)">
   <path d="m46.2402 4.15039c21.7773 0 39.4531-17.627 39.4531-39.4043s-17.6758-39.4043-39.4531-39.4043c-21.7285 0-39.4043 17.627-39.4043 39.4043s17.6758 39.4043 39.4043 39.4043Zm0-7.42188c-17.6758 0-31.9336-14.3066-31.9336-31.9824s14.2578-31.9824 31.9336-31.9824 31.9824 14.3066 31.9824 31.9824-14.3066 31.9824-31.9824 31.9824Zm3.61328-17.7734v-28.4668c0-2.24609-1.46484-3.75977-3.71094-3.75977-2.14844 0-3.61328 1.51367-3.61328 3.75977v28.4668c0 2.19727 1.46484 3.71094 3.61328 3.71094 2.24609 0 3.71094-1.51367 3.71094-3.71094Zm-17.8223-10.5957h28.418c2.19727 0 3.71094-1.46484 3.71094-3.61328 0-2.19727-1.51367-3.71094-3.71094-3.71094h-28.418c-2.24609 0-3.75977 1.51367-3.75977 3.71094 0 2.14844 1.51367 3.61328 3.75977 3.61328Z"/>
  </g>
  <g transform="matrix(0.2 0 0 0.2 281.506 1933)">
   <path d="m58.5449 14.5508c27.4902 0 49.8047-22.3145 49.8047-49.8047s-22.3145-49.8047-49.8047-49.8047-49.8047 22.3145-49.8047 49.8047 22.3145 49.8047 49.8047 49.8047Zm0-8.30078c-22.9492 0-41.5039-18.5547-41.5039-41.5039s18.5547-41.5039 41.5039-41.5039 41.5039 18.5547 41.5039 41.5039-18.5547 41.5039-41.5039 41.5039Zm4.05273-23.0957v-36.9141c0-2.49023-1.70898-4.19922-4.15039-4.19922-2.39258 0-4.05273 1.70898-4.05273 4.19922v36.9141c0 2.44141 1.66016 4.15039 4.05273 4.15039 2.44141 0 4.15039-1.66016 4.15039-4.15039Zm-22.5586-14.4043h36.9629c2.44141 0 4.15039-1.61133 4.15039-4.00391 0-2.44141-1.70898-4.15039-4.15039-4.15039h-36.9629c-2.49023 0-4.15039 1.70898-4.15039 4.15039 0 2.39258 1.66016 4.00391 4.15039 4.00391Z"/>
  </g>
  <g transform="matrix(0.2 0 0 0.2 304.924 1933)">
   <path d="m74.8535 28.3203c35.1074 0 63.623-28.4668 63.623-63.5742s-28.5156-63.623-63.623-63.623-63.5742 28.5156-63.5742 63.623 28.4668 63.5742 63.5742 63.5742Zm0-9.08203c-30.127 0-54.4922-24.3652-54.4922-54.4922s24.3652-54.4922 54.4922-54.4922 54.4922 24.3652 54.4922 54.4922-24.3652 54.4922-54.4922 54.4922Zm4.44336-30.3223v-48.4863c0-2.73438-1.85547-4.63867-4.54102-4.63867-2.58789 0-4.44336 1.9043-4.44336 4.63867v48.4863c0 2.68555 1.85547 4.58984 4.44336 4.58984 2.68555 0 4.54102-1.85547 4.54102-4.58984Zm-28.7109-19.7754h48.4863c2.68555 0 4.58984-1.80664 4.58984-4.39453 0-2.73438-1.85547-4.58984-4.58984-4.58984h-48.4863c-2.73438 0-4.58984 1.85547-4.58984 4.58984 0 2.58789 1.85547 4.39453 4.58984 4.39453Z"/>
  </g>
  <text style="stroke:none;fill:black;font-family:sans-serif;font-size:13;font-weight:bold;" transform="matrix(1 0 0 1 263 1953)">Design Variations</text>
  <text style="stroke:none;fill:black;font-family:sans-serif;font-size:13;" transform="matrix(1 0 0 1 263 1971)">Symbols are supported in up to nine weights and three scales.</text>
  <text style="stroke:none;fill:black;font-family:sans-serif;font-size:13;" transform="matrix(1 0 0 1 263 1989)">For optimal layout with text and other symbols, vertically align</text>
  <text style="stroke:none;fill:black;font-family:sans-serif;font-size:13;" transform="matrix(1 0 0 1 263 2007)">symbols with the adjacent text.</text>
  <line style="fill:none;stroke:#00AEEF;stroke-width:0.5;opacity:1.0;" x1="776" x2="776" y1="1919" y2="1933"/>
  <g transform="matrix(0.2 0 0 0.2 776 1933)">
   <path d="m16.5527 0.78125c2.58789 0 3.85742-0.976562 4.78516-3.71094l20.5566-57.5195h0.244141l20.6055 57.5195c0.927734 2.73438 2.19727 3.71094 4.73633 3.71094 2.58789 0 4.24805-1.5625 4.24805-4.00391 0-0.830078-0.146484-1.61133-0.537109-2.63672l-22.9004-60.9863c-1.12305-2.97852-3.125-4.49219-6.25-4.49219-3.02734 0-5.07812 1.46484-6.15234 4.44336l-22.9004 61.084c-0.390625 1.02539-0.537109 1.80664-0.537109 2.63672 0 2.44141 1.5625 3.95508 4.10156 3.95508Zm10.2051-20.9473h30.6641c2.00195 0 3.66211-1.66016 3.66211-3.66211 0-2.05078-1.66016-3.66211-3.66211-3.66211h-30.6641c-2.00195 0-3.66211 1.61133-3.66211 3.66211 0 2.00195 1.66016 3.66211 3.66211 3.66211Z"/>
  </g>
  <line style="fill:none;stroke:#00AEEF;stroke-width:0.5;opacity:1.0;" x1="792.836" x2="792.836" y1="1919" y2="1933"/>
  <text style="stroke:none;fill:black;font-family:sans-serif;font-size:13;font-weight:bold;" transform="matrix(1 0 0 1 776 1953)">Margins</text>
  <text style="stroke:none;fill:black;font-family:sans-serif;font-size:13;" transform="matrix(1 0 0 1 776 1971)">Leading and trailing margins on the left and right side of each symbol</text>
  <text style="stroke:none;fill:black;font-family:sans-serif;font-size:13;" transform="matrix(1 0 0 1 776 1989)">can be adjusted by modifying the x-location of the margin guidelines.</text>
  <text style="stroke:none;fill:black;font-family:sans-serif;font-size:13;" transform="matrix(1 0 0 1 776 2007)">Modifications are automatically applied proportionally to all</text>
  <text style="stroke:none;fill:black;font-family:sans-serif;font-size:13;" transform="matrix(1 0 0 1 776 2025)">scales and weights.</text>
  <g transform="matrix(0.2 0 0 0.2 1289 1933)">
   <path d="m14.209 13.1348 7.86133 7.86133c4.29688 4.39453 9.32617 4.10156 13.8672-1.02539l60.6934-68.2129-4.88281-4.88281-60.2539 67.6758c-1.80664 1.95312-3.4668 2.44141-5.81055 0.0976562l-5.17578-5.12695c-2.29492-2.29492-1.80664-3.95508 0.195312-5.81055l67.4805-62.1582-4.88281-4.83398-68.0664 62.5977c-4.98047 4.58984-5.32227 9.47266-1.02539 13.8184Zm44.873-97.4609c-2.05078 2.00195-2.24609 4.88281-1.07422 6.78711 1.12305 1.80664 3.4668 3.02734 6.5918 2.24609 5.85938-1.66016 12.5977-2.39258 18.8965 0.927734l-2.68555 7.12891c-1.61133 4.00391-0.732422 6.88477 1.70898 9.42383l10.2539 10.3027c2.34375 2.39258 4.54102 2.44141 7.08008 1.95312l4.44336-0.732422 2.58789 2.53906-0.195312 2.24609c-0.0976562 2.29492 0.537109 4.29688 2.7832 6.49414l3.36914 3.32031c2.29492 2.29492 5.51758 2.49023 7.8125 0.195312l12.9883-13.0371c2.29492-2.34375 2.14844-5.37109-0.195312-7.66602l-3.41797-3.41797c-2.19727-2.19727-4.05273-3.02734-6.34766-2.88086l-2.34375 0.244141-2.44141-2.44141 1.02539-4.6875c0.634766-2.73438-0.244141-4.98047-2.88086-7.61719l-11.2793-11.1816c-12.9395-12.8418-35.5957-11.0352-46.6797-0.146484Zm7.08008 2.05078c8.78906-6.39648 25.9766-5.66406 33.6914 1.95312l12.3047 12.207c1.02539 1.02539 1.2207 1.80664 0.927734 3.32031l-1.46484 6.64062 6.73828 6.68945 4.39453-0.244141c1.12305-0.0488281 1.51367 0.0488281 2.34375 0.878906l2.53906 2.49023-10.8398 10.8398-2.49023-2.49023c-0.830078-0.878906-0.976562-1.2207-0.927734-2.39258l0.292969-4.3457-6.68945-6.73828-6.83594 1.17188c-1.41602 0.292969-2.05078 0.195312-3.17383-0.878906l-8.93555-8.88672c-1.07422-1.02539-1.17188-1.70898-0.488281-3.36914l4.58984-11.4746c-6.10352-6.34766-17.041-7.51953-25.5859-4.58984-0.683594 0.244141-0.927734-0.390625-0.390625-0.78125Z"/>
  </g>
  <text style="stroke:none;fill:black;font-family:sans-serif;font-size:13;font-weight:bold;" transform="matrix(1 0 0 1 1289 1953)">Exporting</text>
  <text style="stroke:none;fill:black;font-family:sans-serif;font-size:13;" transform="matrix(1 0 0 1 1289 1971)">Symbols should be outlined when exporting to ensure the</text>
  <text style="stroke:none;fill:black;font-family:sans-serif;font-size:13;" transform="matrix(1 0 0 1 1289 1989)">design is preserved when submitting to Xcode.</text>
  <text id="template-version" style="stroke:none;fill:black;font-family:sans-serif;font-size:13;text-anchor:end;" transform="matrix(1 0 0 1 3036 1933)">Template v.2.0</text>
  <text style="stroke:none;fill:black;font-family:sans-serif;font-size:13;text-anchor:end;" transform="matrix(1 0 0 1 3036 1951)">Requires Xcode 12 or greater</text>
  <text id="descriptive-name" style="stroke:none;fill:black;font-family:sans-serif;font-size:13;text-anchor:end;" transform="matrix(1 0 0 1 3036 1969)">Generated from platter.filled.bottom.iphone</text>
  <text style="stroke:none;fill:black;font-family:sans-serif;font-size:13;text-anchor:end;" transform="matrix(1 0 0 1 3036 1987)">Typeset at 100.0 points</text>
  <text style="stroke:none;fill:black;font-family:sans-serif;font-size:13;" transform="matrix(1 0 0 1 263 726)">Small</text>
  <text style="stroke:none;fill:black;font-family:sans-serif;font-size:13;" transform="matrix(1 0 0 1 263 1156)">Medium</text>
  <text style="stroke:none;fill:black;font-family:sans-serif;font-size:13;" transform="matrix(1 0 0 1 263 1586)">Large</text>
 </g>
 <g id="Guides">
  <g id="H-reference" style="fill:#27AAE1;stroke:none;" transform="matrix(1 0 0 1 339 696)">
   <path d="M0.993654 0L3.63775 0L29.3281-67.1323L30.0303-67.1323L30.0303-70.459L28.1226-70.459ZM11.6885-24.4799L46.9815-24.4799L46.2315-26.7285L12.4385-26.7285ZM55.1196 0L57.7637 0L30.6382-70.459L29.4326-70.459L29.4326-67.1323Z"/>
  </g>
  <line id="Baseline-S" style="fill:none;stroke:#27AAE1;opacity:1;stroke-width:0.5;" x1="263" x2="3036" y1="696" y2="696"/>
  <line id="Capline-S" style="fill:none;stroke:#27AAE1;opacity:1;stroke-width:0.5;" x1="263" x2="3036" y1="625.541" y2="625.541"/>
  <g id="H-reference" style="fill:#27AAE1;stroke:none;" transform="matrix(1 0 0 1 339 1126)">
   <path d="M0.993654 0L3.63775 0L29.3281-67.1323L30.0303-67.1323L30.0303-70.459L28.1226-70.459ZM11.6885-24.4799L46.9815-24.4799L46.2315-26.7285L12.4385-26.7285ZM55.1196 0L57.7637 0L30.6382-70.459L29.4326-70.459L29.4326-67.1323Z"/>
  </g>
  <line id="Baseline-M" style="fill:none;stroke:#27AAE1;opacity:1;stroke-width:0.5;" x1="263" x2="3036" y1="1126" y2="1126"/>
  <line id="Capline-M" style="fill:none;stroke:#27AAE1;opacity:1;stroke-width:0.5;" x1="263" x2="3036" y1="1055.54" y2="1055.54"/>
  <g id="H-reference" style="fill:#27AAE1;stroke:none;" transform="matrix(1 0 0 1 339 1556)">
   <path d="M0.993654 0L3.63775 0L29.3281-67.1323L30.0303-67.1323L30.0303-70.459L28.1226-70.459ZM11.6885-24.4799L46.9815-24.4799L46.2315-26.7285L12.4385-26.7285ZM55.1196 0L57.7637 0L30.6382-70.459L29.4326-70.459L29.4326-67.1323Z"/>
  </g>
  <line id="Baseline-L" style="fill:none;stroke:#27AAE1;opacity:1;stroke-width:0.5;" x1="263" x2="3036" y1="1556" y2="1556"/>
  <line id="Capline-L" style="fill:none;stroke:#27AAE1;opacity:1;stroke-width:0.5;" x1="263" x2="3036" y1="1485.54" y2="1485.54"/>
  <line id="right-margin" style="fill:none;stroke:#00AEEF;stroke-width:0.5;opacity:1.0;" x1="1499.92" x2="1499.92" y1="1030.79" y2="1150.12"/>
  <line id="left-margin" style="fill:none;stroke:#00AEEF;stroke-width:0.5;opacity:1.0;" x1="1399.77" x2="1399.77" y1="1030.79" y2="1150.12"/>
 </g>
 <g id="Symbols">
  <g id="Black-L" transform="matrix(1 0 0 1 2861.61 1556)">
   <path d="M55.3653 11.0031L88.1878 11.0031C91.4898 11.0031 93.7404 8.75257 93.7404 5.29092L93.7404-4.2941C93.7404-7.75455 91.4898-10.0051 88.1878-10.0051L55.3653-10.0051C52.0633-10.0051 49.8127-7.75455 49.8127-4.2941L49.8127 5.29092C49.8127 8.75257 52.0633 11.0031 55.3653 11.0031ZM21.2056 20.4185C21.2056 32.8008 29.8689 41.1276 42.7474 41.1276L102.032 41.1276C114.209 41.1276 122.368 32.8008 122.368 20.3601L122.368-91.1528C122.368-103.593 114.209-111.92 102.032-111.92L42.7474-111.92C29.8689-111.92 21.2056-103.593 21.2056-91.2112ZM41.1867 13.415L41.1867-84.2076C41.1867-88.1625 43.6837-90.4206 47.5842-90.4206L96.0273-90.4206C99.8902-90.4206 102.366-88.0457 102.366-84.1492L102.366 13.3565C102.366 17.253 99.8902 19.6292 96.0273 19.6292L47.5842 19.6292C43.6837 19.6292 41.1867 17.3698 41.1867 13.415Z"/>
  </g>
  <g id="Heavy-L" transform="matrix(1 0 0 1 2566.73 1556)">
   <path d="M53.4493 11.564L86.4345 11.564C89.7542 11.564 92.0004 9.31785 92.0004 5.84295L92.0004-3.21759C92.0004-6.68688 89.7542-8.93302 86.4345-8.93302L53.4493-8.93302C50.1296-8.93302 47.8835-6.68688 47.8835-3.21759L47.8835 5.84295C47.8835 9.31785 50.1296 11.564 53.4493 11.564ZM21.8948 19.0602C21.8948 30.8404 30.0854 38.7072 42.3447 38.7072L98.4762 38.7072C110.194 38.7072 118.019 30.8404 118.019 19.0155L118.019-89.758C118.019-101.583 110.194-109.45 98.4762-109.45L42.3447-109.45C30.0854-109.45 21.8948-101.583 21.8948-89.8026ZM39.3952 13.3524L39.3952-84.0949C39.3952-88.3858 42.0285-90.7891 46.3207-90.7891L93.6077-90.7891C97.8855-90.7891 100.489-88.2966 100.489-84.0503L100.489 13.3078C100.489 17.5541 97.8855 20.0522 93.6077 20.0522L46.3207 20.0522C42.0285 20.0522 39.3952 17.6434 39.3952 13.3524Z"/>
  </g>
  <g id="Bold-L" transform="matrix(1 0 0 1 2272.32 1556)">
   <path d="M51.0303 12.2556L84.2377 12.2556C87.5878 12.2556 89.8264 10.0171 89.8264 6.51937L89.8264-1.8956C89.8264-5.38012 87.5878-7.61864 84.2377-7.61864L51.0303-7.61864C47.6801-7.61864 45.4416-5.38012 45.4416-1.8956L45.4416 6.51937C45.4416 10.0171 47.6801 12.2556 51.0303 12.2556ZM22.6658 17.3774C22.6658 28.4868 30.25 35.7775 41.8005 35.7775L94.0807 35.7775C105.268 35.7775 112.64 28.4868 112.64 17.3482L112.64-88.0292C112.64-99.1678 105.268-106.458 94.0807-106.458L41.8005-106.458C30.25-106.458 22.6658-99.1678 22.6658-88.0584ZM37.1076 13.1862L37.1076-83.8671C37.1076-88.6624 39.9173-91.2574 44.7682-91.2574L90.529-91.2574C95.3886-91.2574 98.1604-88.604 98.1604-83.8379L98.1604 13.157C98.1604 17.9231 95.3886 20.5897 90.529 20.5897L44.7682 20.5897C39.9173 20.5897 37.1076 17.9815 37.1076 13.1862Z"/>
  </g>
  <g id="Semibold-L" transform="matrix(1 0 0 1 1977.2 1556)">
   <path d="M49.3626 12.7325L82.7232 12.7325C86.0944 12.7325 88.3277 10.4992 88.3277 6.98569L88.3277-0.984225C88.3277-4.47924 86.0944-6.71252 82.7232-6.71252L49.3626-6.71252C45.9915-6.71252 43.7582-4.47924 43.7582-0.984225L43.7582 6.98569C43.7582 10.4992 45.9915 12.7325 49.3626 12.7325ZM23.1973 16.2173C23.1973 26.8642 30.3635 33.7578 41.4254 33.7578L91.0505 33.7578C101.871 33.7578 108.932 26.8642 108.932 16.1987L108.932-86.8373C108.932-97.5028 101.871-104.396 91.0505-104.396L41.4254-104.396C30.3635-104.396 23.1973-97.5028 23.1973-86.8559ZM35.5305 13.0715L35.5305-83.7101C35.5305-88.8532 38.4619-91.5803 43.6979-91.5803L88.4065-91.5803C93.6673-91.5803 96.5554-88.816 96.5554-83.6915L96.5554 13.053C96.5554 18.1774 93.6673 20.9602 88.4065 20.9602L43.6979 20.9602C38.4619 20.9602 35.5305 18.2146 35.5305 13.0715Z"/>
  </g>
  <g id="Medium-L" transform="matrix(1 0 0 1 1681.7 1556)">
   <path d="M48.0981 13.094L81.5749 13.094C84.962 13.094 87.1913 10.8647 87.1913 7.33927L87.1913-0.293182C87.1913-3.79617 84.962-6.02546 81.5749-6.02546L48.0981-6.02546C44.711-6.02546 42.4817-3.79617 42.4817-0.293182L42.4817 7.33927C42.4817 10.8647 44.711 13.094 48.0981 13.094ZM23.6003 15.3377C23.6003 25.6339 30.4495 32.2263 41.141 32.2263L88.7528 32.2263C99.2956 32.2263 106.12 25.6339 106.12 15.3271L106.12-85.9336C106.12-96.2404 99.2956-102.833 88.7528-102.833L41.141-102.833C30.4495-102.833 23.6003-96.2404 23.6003-85.9441ZM34.3346 12.9846L34.3346-83.591C34.3346-88.9977 37.3583-91.8251 42.8863-91.8251L86.7972-91.8251C92.3621-91.8251 95.3384-88.9767 95.3384-83.5805L95.3384 12.9741C95.3384 18.3703 92.3621 21.2411 86.7972 21.2411L42.8863 21.2411C37.3583 21.2411 34.3346 18.3913 34.3346 12.9846Z"/>
  </g>
  <g id="Regular-L" transform="matrix(1 0 0 1 1386.56 1556)">
   <path d="M46.4488 13.5656L80.0771 13.5656C83.4849 13.5656 85.709 11.3415 85.709 7.80046L85.709 0.608178C85.709-2.90519 83.4849-5.12929 80.0771-5.12929L46.4488-5.12929C43.0409-5.12929 40.8168-2.90519 40.8168 0.608178L40.8168 7.80046C40.8168 11.3415 43.0409 13.5656 46.4488 13.5656ZM24.126 14.1903C24.126 24.0292 30.5617 30.2288 40.77 30.2288L85.7559 30.2288C95.9364 30.2288 102.453 24.0292 102.453 14.1903L102.453-84.7548C102.453-94.5937 95.9364-100.793 85.7559-100.793L40.77-100.793C30.5617-100.793 24.126-94.5937 24.126-84.7548ZM32.7748 12.8712L32.7748-83.4357C32.7748-89.1864 35.9189-92.1444 41.8278-92.1444L84.6981-92.1444C90.6597-92.1444 93.751-89.1864 93.751-83.4357L93.751 12.8712C93.751 18.6218 90.6597 21.6076 84.6981 21.6076L41.8278 21.6076C35.9189 21.6076 32.7748 18.6218 32.7748 12.8712Z"/>
  </g>
  <g id="Light-L" transform="matrix(1 0 0 1 1091.68 1556)">
   <path d="M44.483 14.0236L78.3975 14.0236C81.8817 14.0236 84.0867 11.8186 84.0867 8.22034L84.0867 1.44793C84.0867-2.10361 81.8817-4.30863 78.3975-4.30863L44.483-4.30863C40.9988-4.30863 38.7938-2.10361 38.7938 1.44793L38.7938 8.22034C38.7938 11.8186 40.9988 14.0236 44.483 14.0236ZM24.126 13.0261C24.126 22.8841 30.0083 28.6447 40.102 28.6447L82.7786 28.6447C92.8255 28.6447 98.7882 22.8841 98.7882 13.0261L98.7882-83.5524C98.7882-93.4104 92.8255-99.1711 82.7786-99.1711L40.102-99.1711C30.0083-99.1711 24.126-93.4104 24.126-83.5524ZM30.7518 12.1842L30.7518-82.7105C30.7518-89.3772 34.0676-92.5452 40.8353-92.5452L82.0452-92.5452C88.8466-92.5452 92.1287-89.3772 92.1287-82.7105L92.1287 12.1842C92.1287 18.8509 88.8466 22.0656 82.0452 22.0656L40.8353 22.0656C34.0676 22.0656 30.7518 18.8509 30.7518 12.1842Z"/>
  </g>
  <g id="Thin-L" transform="matrix(1 0 0 1 797.388 1556)">
   <path d="M41.8831 14.6294L76.1763 14.6294C79.7614 14.6294 81.9412 12.4497 81.9412 8.77566L81.9412 2.55857C81.9412-1.04345 79.7614-3.22323 76.1763-3.22323L41.8831-3.22323C38.2979-3.22323 36.1182-1.04345 36.1182 2.55857L36.1182 8.77566C36.1182 12.4497 38.2979 14.6294 41.8831 14.6294ZM24.126 11.4864C24.126 21.3696 29.2762 26.5496 39.2185 26.5496L78.8408 26.5496C88.7111 26.5496 93.9418 21.3696 93.9418 11.4864L93.9418-81.9622C93.9418-91.8454 88.7111-97.0255 78.8408-97.0255L39.2185-97.0255C29.2762-97.0255 24.126-91.8454 24.126-81.9622ZM28.0762 11.2755L28.0762-81.7513C28.0762-89.6296 31.6191-93.0753 39.5228-93.0753L78.5366-93.0753C86.4487-93.0753 89.9832-89.6296 89.9832-81.7513L89.9832 11.2755C89.9832 19.1538 86.4487 22.6714 78.5366 22.6714L39.5228 22.6714C31.6191 22.6714 28.0762 19.1538 28.0762 11.2755Z"/>
  </g>
  <g id="Ultralight-L" transform="matrix(1 0 0 1 501.918 1556)">
   <path d="M40.5514 14.9397L75.0385 14.9397C78.6754 14.9397 80.8423 12.7729 80.8423 9.06009L80.8423 3.12743C80.8423-0.500447 78.6754-2.66729 75.0385-2.66729L40.5514-2.66729C36.9146-2.66729 34.7477-0.500447 34.7477 3.12743L34.7477 9.06009C34.7477 12.7729 36.9146 14.9397 40.5514 14.9397ZM24.126 10.6977C24.126 20.5938 28.9013 25.4766 38.766 25.4766L76.824 25.4766C86.6037 25.4766 91.4595 20.5938 91.4595 10.6977L91.4595-81.1477C91.4595-91.0438 86.6037-95.9266 76.824-95.9266L38.766-95.9266C28.9013-95.9266 24.126-91.0438 24.126-81.1477ZM26.7057 10.81L26.7057-81.26C26.7057-89.7589 30.365-93.3468 38.8505-93.3468L76.7395-93.3468C85.2204-93.3468 88.8842-89.7589 88.8842-81.26L88.8842 10.81C88.8842 19.3089 85.2204 22.9817 76.7395 22.9817L38.8505 22.9817C30.365 22.9817 26.7057 19.3089 26.7057 10.81Z"/>
  </g>
  <g id="Black-M" transform="matrix(1 0 0 1 2876.46 1126)">
   <path d="M44.2741 0.16889L69.6021 0.16889C72.1554 0.16889 73.9002-1.57592 73.9002-4.25418L73.9002-12.0739C73.9002-14.7525 72.1554-16.4973 69.6021-16.4973L44.2741-16.4973C41.7208-16.4973 39.976-14.7525 39.976-12.0739L39.976-4.25418C39.976-1.57592 41.7208 0.16889 44.2741 0.16889ZM15.8366 8.89302C15.8366 19.0061 22.8796 25.7931 33.3738 25.7931L81.7014 25.7931C91.5107 25.7931 98.0451 19.0061 98.0451 8.83592L98.0451-79.5914C98.0451-89.7616 91.5107-96.5485 81.7014-96.5485L33.3738-96.5485C22.8796-96.5485 15.8366-89.7616 15.8366-79.6485ZM33.1745 2.41804L33.1745-73.1735C33.1745-76.0728 35.0153-77.7261 37.8169-77.7261L76.1164-77.7261C78.8664-77.7261 80.7017-75.9586 80.7017-73.1164L80.7017 2.36094C80.7017 5.20315 78.8664 6.97032 76.1164 6.97032L37.8169 6.97032C35.0153 6.97032 33.1745 5.31734 33.1745 2.41804Z"/>
  </g>
  <g id="Heavy-M" transform="matrix(1 0 0 1 2581.37 1126)">
   <path d="M42.5825 0.674921L68.0431 0.674921C70.6066 0.674921 72.3489-1.06734 72.3489-3.75326L72.3489-11.0991C72.3489-13.7827 70.6066-15.525 68.0431-15.525L42.5825-15.525C40.0189-15.525 38.2766-13.7827 38.2766-11.0991L38.2766-3.75326C38.2766-1.06734 40.0189 0.674921 42.5825 0.674921ZM16.5103 7.67254C16.5103 17.1953 23.1423 23.5731 33.0417 23.5731L78.4998 23.5731C87.8735 23.5731 94.1316 17.1953 94.1316 7.62892L94.1316-78.3388C94.1316-87.9053 87.8735-94.283 78.4998-94.283L33.0417-94.283C23.1423-94.283 16.5103-87.9053 16.5103-78.3825ZM31.6099 2.42031L31.6099-73.1302C31.6099-76.2735 33.568-78.0492 36.6733-78.0492L73.9958-78.0492C77.0739-78.0492 79.0156-76.1863 79.0156-73.0866L79.0156 2.37669C79.0156 5.47637 77.0739 7.34161 73.9958 7.34161L36.6733 7.34161C33.568 7.34161 31.6099 5.56362 31.6099 2.42031Z"/>
  </g>
  <g id="Bold-M" transform="matrix(1 0 0 1 2286.47 1126)">
   <path d="M40.6901 1.24099L66.2991 1.24099C68.8741 1.24099 70.6135-0.498408 70.6135-3.19291L70.6135-10.0085C70.6135-12.6979 68.8741-14.4373 66.2991-14.4373L40.6901-14.4373C38.1151-14.4373 36.3757-12.6979 36.3757-10.0085L36.3757-3.19291C36.3757-0.498408 38.1151 1.24099 40.6901 1.24099ZM17.264 6.30727C17.264 15.1697 23.4362 21.0898 32.6703 21.0898L74.9184 21.0898C83.8047 21.0898 89.7538 15.1697 89.7538 6.27872L89.7538-76.9377C89.7538-85.8287 83.8047-91.7487 74.9184-91.7487L32.6703-91.7487C23.4362-91.7487 17.264-85.8287 17.264-76.9662ZM29.8597 2.42286L29.8597-73.0818C29.8597-76.4981 31.949-78.4108 35.3941-78.4108L71.6236-78.4108C75.0687-78.4108 77.1295-76.441 77.1295-73.0533L77.1295 2.39431C77.1295 5.78202 75.0687 7.75694 71.6236 7.75694L35.3941 7.75694C31.949 7.75694 29.8597 5.83911 29.8597 2.42286Z"/>
  </g>
  <g id="Semibold-M" transform="matrix(1 0 0 1 1991.01 1126)">
   <path d="M39.3855 1.63123L65.0968 1.63123C67.6797 1.63123 69.4171-0.106192 69.4171-2.80661L69.4171-9.25669C69.4171-11.95 67.6797-13.6874 65.0968-13.6874L39.3855-13.6874C36.8026-13.6874 35.0651-11.95 35.0651-9.25669L35.0651-2.80661C35.0651-0.106192 36.8026 1.63123 39.3855 1.63123ZM17.7836 5.36606C17.7836 13.7732 23.6388 19.3778 32.4142 19.3778L72.4493 19.3778C80.9997 19.3778 86.7358 13.7732 86.7358 5.3479L86.7358-75.9718C86.7358-84.3971 80.9997-90.0016 72.4493-90.0016L32.4142-90.0016C23.6388-90.0016 17.7836-84.3971 17.7836-75.9899ZM28.6531 2.42461L28.6531-73.0485C28.6531-76.6529 30.8329-78.66 34.5122-78.66L69.9883-78.66C73.6864-78.66 75.8292-76.6166 75.8292-73.0303L75.8292 2.40646C75.8292 5.99273 73.6864 8.04327 69.9883 8.04327L34.5122 8.04327C30.8329 8.04327 28.6531 6.02904 28.6531 2.42461Z"/>
  </g>
  <g id="Medium-M" transform="matrix(1 0 0 1 1695.24 1126)">
   <path d="M38.3963 1.92713L64.1852 1.92713C66.7741 1.92713 68.51 0.191202 68.51-2.5137L68.51-8.68663C68.51-11.3829 66.7741-13.1189 64.1852-13.1189L38.3963-13.1189C35.8074-13.1189 34.0715-11.3829 34.0715-8.68663L34.0715-2.5137C34.0715 0.191202 35.8074 1.92713 38.3963 1.92713ZM18.1775 4.65239C18.1775 12.7144 23.7925 18.0797 32.2201 18.0797L70.5772 18.0797C78.8729 18.0797 84.4474 12.7144 84.4474 4.64211L84.4474-75.2393C84.4474-83.3116 78.8729-88.6769 70.5772-88.6769L32.2201-88.6769C23.7925-88.6769 18.1775-83.3116 18.1775-75.2496ZM27.7382 2.42595L27.7382-73.0232C27.7382-76.7703 29.9866-78.849 33.8435-78.849L68.7483-78.849C72.6382-78.849 74.8433-76.7497 74.8433-73.0129L74.8433 2.41567C74.8433 6.1525 72.6382 8.26037 68.7483 8.26037L33.8435 8.26037C29.9866 8.26037 27.7382 6.17305 27.7382 2.42595Z"/>
  </g>
  <g id="Regular-M" transform="matrix(1 0 0 1 1399.77 1126)">
   <path d="M37.106 2.31309L62.9961 2.31309C65.5928 2.31309 67.3268 0.579108 67.3268-2.13165L67.3268-7.94308C67.3268-10.6433 65.5928-12.3773 62.9961-12.3773L37.106-12.3773C34.5093-12.3773 32.7753-10.6433 32.7753-7.94308L32.7753-2.13165C32.7753 0.579108 34.5093 2.31309 37.106 2.31309ZM18.6914 3.72152C18.6914 11.3332 23.9928 16.3865 31.9668 16.3865L68.1353 16.3865C76.0987 16.3865 81.4625 11.3332 81.4625 3.72152L81.4625-74.284C81.4625-81.8957 76.0987-86.949 68.1353-86.949L31.9668-86.949C23.9928-86.949 18.6914-81.8957 18.6914-74.284ZM26.5449 2.42768L26.5449-72.9902C26.5449-76.9234 28.8828-79.0955 32.9713-79.0955L67.1309-79.0955C71.2711-79.0955 73.5573-76.9234 73.5573-72.9902L73.5573 2.42768C73.5573 6.36089 71.2711 8.54356 67.1309 8.54356L32.9713 8.54356C28.8828 8.54356 26.5449 6.36089 26.5449 2.42768Z"/>
  </g>
  <g id="Light-M" transform="matrix(1 0 0 1 1104.7 1126)">
   <path d="M35.3436 2.72375L61.4904 2.72375C64.1555 2.72375 65.8724 1.00688 65.8724-1.75521L65.8724-7.1902C65.8724-9.92462 64.1555-11.6415 61.4904-11.6415L35.3436-11.6415C32.6784-11.6415 30.9616-9.92462 30.9616-7.1902L30.9616-1.75521C30.9616 1.00688 32.6784 2.72375 35.3436 2.72375ZM18.6914 2.67776C18.6914 10.3066 23.4966 14.9663 31.368 14.9663L65.466 14.9663C73.3097 14.9663 78.1772 10.3066 78.1772 2.67776L78.1772-73.206C78.1772-80.8349 73.3097-85.4945 65.466-85.4945L31.368-85.4945C23.4966-85.4945 18.6914-80.8349 18.6914-73.206ZM24.7311 1.81169L24.7311-72.34C24.7311-77.0945 27.223-79.4548 32.0815-79.4548L64.7524-79.4548C69.6455-79.4548 72.1028-77.0945 72.1028-72.34L72.1028 1.81169C72.1028 6.56622 69.6455 8.95422 64.7524 8.95422L32.0815 8.95422C27.223 8.95422 24.7311 6.56622 24.7311 1.81169Z"/>
  </g>
  <g id="Thin-M" transform="matrix(1 0 0 1 810.16 1126)">
   <path d="M33.0126 3.26689L59.4989 3.26689C62.2545 3.26689 63.9488 1.57265 63.9488-1.25733L63.9488-6.19445C63.9488-8.97414 62.2545-10.6684 59.4989-10.6684L33.0126-10.6684C30.257-10.6684 28.5627-8.97414 28.5627-6.19445L28.5627-1.25733C28.5627 1.57265 30.257 3.26689 33.0126 3.26689ZM18.6914 1.29729C18.6914 8.94875 22.8403 13.0879 30.5759 13.0879L61.9356 13.0879C69.6209 13.0879 73.8321 8.94875 73.8321 1.29729L73.8321-71.7803C73.8321-79.4318 69.6209-83.5709 61.9356-83.5709L30.5759-83.5709C22.8403-83.5709 18.6914-79.4318 18.6914-71.7803ZM22.3323 0.996987L22.3323-71.48C22.3323-77.3208 25.0279-79.9301 30.9047-79.9301L61.6068-79.9301C67.4956-79.9301 70.1792-77.3208 70.1792-71.48L70.1792 0.996987C70.1792 6.83779 67.4956 9.49735 61.6068 9.49735L30.9047 9.49735C25.0279 9.49735 22.3323 6.83779 22.3323 0.996987Z"/>
  </g>
  <g id="Ultralight-M" transform="matrix(1 0 0 1 514.562 1126)">
   <path d="M31.8187 3.54508L58.4788 3.54508C61.2809 3.54508 62.9635 1.86243 62.9635-1.00232L62.9635-5.68443C62.9635-8.4873 61.2809-10.17 58.4788-10.17L31.8187-10.17C29.0167-10.17 27.3341-8.4873 27.3341-5.68443L27.3341-1.00232C27.3341 1.86243 29.0167 3.54508 31.8187 3.54508ZM18.6914 0.590222C18.6914 8.25328 22.5042 12.1258 30.1702 12.1258L60.1274 12.1258C67.7315 12.1258 71.6066 8.25328 71.6066 0.590222L71.6066-71.05C71.6066-78.7131 67.7315-82.5857 60.1274-82.5857L30.1702-82.5857C22.5042-82.5857 18.6914-78.7131 18.6914-71.05ZM21.1036 0.579701L21.1036-71.0395C21.1036-77.4367 23.9035-80.1735 30.302-80.1735L59.9956-80.1735C66.3945-80.1735 69.194-77.4367 69.194-71.0395L69.194 0.579701C69.194 6.97688 66.3945 9.77554 59.9956 9.77554L30.302 9.77554C23.9035 9.77554 21.1036 6.97688 21.1036 0.579701Z"/>
  </g>
  <g id="Black-S" transform="matrix(1 0 0 1 2888.38 696)">
   <path d="M35.1074-7.61719L54.9316-7.61719C56.9336-7.61719 58.3008-8.98438 58.3008-11.084L58.3008-17.334C58.3008-19.4336 56.9336-20.8008 54.9316-20.8008L35.1074-20.8008C33.1055-20.8008 31.7383-19.4336 31.7383-17.334L31.7383-11.084C31.7383-8.98438 33.1055-7.61719 35.1074-7.61719ZM12.207-0.341797C12.207 7.76367 17.8223 13.1836 26.2207 13.1836L64.8438 13.1836C72.6562 13.1836 77.832 7.76367 77.832-0.390625L77.832-70.3125C77.832-78.4668 72.6562-83.8867 64.8438-83.8867L26.2207-83.8867C17.8223-83.8867 12.207-78.4668 12.207-70.3613ZM26.3672-5.76172L26.3672-64.9414C26.3672-67.1875 27.7832-68.457 29.9316-68.457L60.1562-68.457C62.2559-68.457 63.6719-67.0898 63.6719-64.8926L63.6719-5.81055C63.6719-3.61328 62.2559-2.24609 60.1562-2.24609L29.9316-2.24609C27.7832-2.24609 26.3672-3.51562 26.3672-5.76172Z"/>
  </g>
  <g id="Heavy-S" transform="matrix(1 0 0 1 2592.84 696)">
   <path d="M33.8858-7.23688L53.7907-7.23688C55.7927-7.23688 57.1599-8.60407 57.1599-10.7037L57.1599-16.5964C57.1599-18.696 55.7927-20.0632 53.7907-20.0632L33.8858-20.0632C31.8839-20.0632 30.5167-18.696 30.5167-16.5964L30.5167-10.7037C30.5167-8.60407 31.8839-7.23688 33.8858-7.23688ZM12.7833-1.25223C12.7833 6.34616 18.1104 11.4664 26.0133 11.4664L62.4467 11.4664C69.9019 11.4664 74.9048 6.34616 74.9048-1.28953L74.9048-69.379C74.9048-77.0147 69.9019-82.135 62.4467-82.135L26.0133-82.135C18.1104-82.135 12.7833-77.0147 12.7833-69.4163ZM25.2608-5.68105L25.2608-64.9875C25.2608-67.3373 26.7575-68.6875 29.0673-68.6875L58.6465-68.6875C60.9305-68.6875 62.4157-67.2627 62.4157-64.9502L62.4157-5.71835C62.4157-3.40584 60.9305-1.98103 58.6465-1.98103L29.0673-1.98103C26.7575-1.98103 25.2608-3.33123 25.2608-5.68105Z"/>
  </g>
  <g id="Bold-S" transform="matrix(1 0 0 1 2297.45 696)">
   <path d="M32.5195-6.81152L52.5146-6.81152C54.5166-6.81152 55.8838-8.17871 55.8838-10.2783L55.8838-15.7715C55.8838-17.8711 54.5166-19.2383 52.5146-19.2383L32.5195-19.2383C30.5176-19.2383 29.1504-17.8711 29.1504-15.7715L29.1504-10.2783C29.1504-8.17871 30.5176-6.81152 32.5195-6.81152ZM13.4277-2.27051C13.4277 4.76074 18.4326 9.5459 25.7812 9.5459L59.7656 9.5459C66.8213 9.5459 71.6309 4.76074 71.6309-2.29492L71.6309-68.335C71.6309-75.3906 66.8213-80.1758 59.7656-80.1758L25.7812-80.1758C18.4326-80.1758 13.4277-75.3906 13.4277-68.3594ZM24.0234-5.59082L24.0234-65.0391C24.0234-67.5049 25.6104-68.9453 28.1006-68.9453L56.958-68.9453C59.4482-68.9453 61.0107-67.4561 61.0107-65.0146L61.0107-5.61523C61.0107-3.17383 59.4482-1.68457 56.958-1.68457L28.1006-1.68457C25.6104-1.68457 24.0234-3.125 24.0234-5.59082Z"/>
  </g>
  <g id="Semibold-S" transform="matrix(1 0 0 1 2001.64 696)">
   <path d="M31.5775-6.51826L51.6349-6.51826C53.6368-6.51826 55.004-7.88545 55.004-9.98506L55.004-15.2027C55.004-17.3023 53.6368-18.6695 51.6349-18.6695L31.5775-18.6695C29.5756-18.6695 28.2084-17.3023 28.2084-15.2027L28.2084-9.98506C28.2084-7.88545 29.5756-6.51826 31.5775-6.51826ZM13.8721-2.97256C13.8721 3.66768 18.6548 8.22178 25.6213 8.22178L57.9172 8.22178C64.6974 8.22178 69.3736 3.66768 69.3736-2.98809L69.3736-67.6151C69.3736-74.2709 64.6974-78.825 57.9172-78.825L25.6213-78.825C18.6548-78.825 13.8721-74.2709 13.8721-67.6307ZM23.1703-5.52861L23.1703-65.0746C23.1703-67.6204 24.8194-69.123 27.4341-69.123L55.7938-69.123C58.4263-69.123 60.0421-67.5894 60.0421-65.0591L60.0421-5.54414C60.0421-3.01387 58.4263-1.48018 55.7938-1.48018L27.4341-1.48018C24.8194-1.48018 23.1703-2.98281 23.1703-5.52861Z"/>
  </g>
  <g id="Medium-S" transform="matrix(1 0 0 1 1705.62 696)">
   <path d="M30.8633-6.2959L50.9678-6.2959C52.9697-6.2959 54.3369-7.66309 54.3369-9.7627L54.3369-14.7715C54.3369-16.8711 52.9697-18.2383 50.9678-18.2383L30.8633-18.2383C28.8613-18.2383 27.4941-16.8711 27.4941-14.7715L27.4941-9.7627C27.4941-7.66309 28.8613-6.2959 30.8633-6.2959ZM14.209-3.50488C14.209 2.83887 18.8232 7.21777 25.5 7.21777L56.5156 7.21777C63.0869 7.21777 67.6621 2.83887 67.6621-3.51367L67.6621-67.0693C67.6621-73.4219 63.0869-77.8008 56.5156-77.8008L25.5-77.8008C18.8232-77.8008 14.209-73.4219 14.209-67.0781ZM22.5234-5.48145L22.5234-65.1016C22.5234-67.708 24.2197-69.2578 26.9287-69.2578L54.9111-69.2578C57.6514-69.2578 59.3076-67.6904 59.3076-65.0928L59.3076-5.49023C59.3076-2.89258 57.6514-1.3252 54.9111-1.3252L26.9287-1.3252C24.2197-1.3252 22.5234-2.875 22.5234-5.48145Z"/>
  </g>
  <g id="Regular-S" transform="matrix(1 0 0 1 1409.81 696)">
   <path d="M29.9316-6.00586L50.0977-6.00586C52.0996-6.00586 53.4668-7.37305 53.4668-9.47266L53.4668-14.209C53.4668-16.3086 52.0996-17.6758 50.0977-17.6758L29.9316-17.6758C27.9297-17.6758 26.5625-16.3086 26.5625-14.209L26.5625-9.47266C26.5625-7.37305 27.9297-6.00586 29.9316-6.00586ZM14.6484-4.19922C14.6484 1.75781 19.043 5.9082 25.3418 5.9082L54.6875 5.9082C60.9863 5.9082 65.4297 1.75781 65.4297-4.19922L65.4297-66.3574C65.4297-72.3145 60.9863-76.4648 54.6875-76.4648L25.3418-76.4648C19.043-76.4648 14.6484-72.3145 14.6484-66.3574ZM21.6797-5.41992L21.6797-65.1367C21.6797-67.8223 23.4375-69.4336 26.2695-69.4336L53.7598-69.4336C56.6406-69.4336 58.3496-67.8223 58.3496-65.1367L58.3496-5.41992C58.3496-2.73438 56.6406-1.12305 53.7598-1.12305L26.2695-1.12305C23.4375-1.12305 21.6797-2.73438 21.6797-5.41992Z"/>
  </g>
  <g id="Light-S" transform="matrix(1 0 0 1 1114.55 696)">
   <path d="M28.3726-5.64258L48.7656-5.64258C50.8281-5.64258 52.1802-6.99463 52.1802-9.13965L52.1802-13.543C52.1802-15.6729 50.8281-17.0249 48.7656-17.0249L28.3726-17.0249C26.3101-17.0249 24.958-15.6729 24.958-13.543L24.958-9.13965C24.958-6.99463 26.3101-5.64258 28.3726-5.64258ZM14.6484-5.12255C14.6484 0.849617 18.604 4.65187 24.812 4.65187L52.3262 4.65187C58.5191 4.65187 62.5235 0.849617 62.5235-5.12255L62.5235-65.4038C62.5235-71.376 58.5191-75.1782 52.3262-75.1782L24.812-75.1782C18.604-75.1782 14.6484-71.376 14.6484-65.4038ZM20.0752-5.96484L20.0752-64.5615C20.0752-67.9736 21.9692-69.7515 25.4824-69.7515L51.6558-69.7515C55.2026-69.7515 57.063-67.9736 57.063-64.5615L57.063-5.96484C57.063-2.55274 55.2026-0.759768 51.6558-0.759768L25.4824-0.759768C21.9692-0.759768 20.0752-2.55274 20.0752-5.96484Z"/>
  </g>
  <g id="Thin-S" transform="matrix(1 0 0 1 819.758 696)">
   <path d="M26.3106-5.16212L47.0039-5.16212C49.1465-5.16212 50.4785-6.49415 50.4785-8.69922L50.4785-12.6621C50.4785-14.832 49.1465-16.1641 47.0039-16.1641L26.3106-16.1641C24.168-16.1641 22.836-14.832 22.836-12.6621L22.836-8.69922C22.836-6.49415 24.168-5.16212 26.3106-5.16212ZM14.6484-6.34373C14.6484-0.351546 18.0234 2.99026 24.1113 2.99026L49.2032 2.99026C55.2559 2.99026 58.6797-0.351546 58.6797-6.34373L58.6797-64.1426C58.6797-70.1348 55.2559-73.4766 49.2032-73.4766L24.1113-73.4766C18.0234-73.4766 14.6484-70.1348 14.6484-64.1426ZM17.9532-6.68554L17.9532-63.8008C17.9532-68.1738 20.0274-70.1719 24.4414-70.1719L48.8731-70.1719C53.3008-70.1719 55.3614-68.1738 55.3614-63.8008L55.3614-6.68554C55.3614-2.3125 53.3008-0.279304 48.8731-0.279304L24.4414-0.279304C20.0274-0.279304 17.9532-2.3125 17.9532-6.68554Z"/>
  </g>
  <g id="Ultralight-S" transform="matrix(1 0 0 1 524.031 696)">
   <path d="M25.2544-4.91602L46.1016-4.91602C48.2852-4.91602 49.607-6.2378 49.607-8.47364L49.607-12.211C49.607-14.4014 48.2852-15.7232 46.1016-15.7232L25.2544-15.7232C23.0708-15.7232 21.7491-14.4014 21.7491-12.211L21.7491-8.47364C21.7491-6.2378 23.0708-4.91602 25.2544-4.91602ZM14.6484-6.96922C14.6484-0.966775 17.7261 2.13919 23.7525 2.13919L47.6036 2.13919C53.5845 2.13919 56.711-0.966775 56.711-6.96922L56.711-63.4966C56.711-69.499 53.5845-72.605 47.6036-72.605L23.7525-72.605C17.7261-72.605 14.6484-69.499 14.6484-63.4966ZM16.8662-7.05467L16.8662-63.4111C16.8662-68.2764 19.0327-70.3872 23.9082-70.3872L47.4478-70.3872C52.3267-70.3872 54.4898-68.2764 54.4898-63.4111L54.4898-7.05467C54.4898-2.18946 52.3267-0.0332117 47.4478-0.0332117L23.9082-0.0332117C19.0327-0.0332117 16.8662-2.18946 16.8662-7.05467Z"/>
  </g>
 </g>
</svg>
