<?xml version="1.0" encoding="UTF-8"?>
<!--Generator: Apple Native CoreSVG 341-->
<!DOCTYPE svg
PUBLIC "-//W3C//DTD SVG 1.1//EN"
       "http://www.w3.org/Graphics/SVG/1.1/DTD/svg11.dtd">
<svg version="1.1" xmlns="http://www.w3.org/2000/svg" xmlns:xlink="http://www.w3.org/1999/xlink" viewBox="0 0 3300 2200">
 <g id="Notes">
  <rect height="2200" id="artboard" style="fill:white;opacity:1" width="3300" x="0" y="0"/>
  <line style="fill:none;stroke:black;opacity:1;stroke-width:0.5;" x1="263" x2="3036" y1="292" y2="292"/>
  <text style="stroke:none;fill:black;font-family:sans-serif;font-size:13;font-weight:bold;" transform="matrix(1 0 0 1 263 322)">Weight/Scale Variations</text>
  <text style="stroke:none;fill:black;font-family:sans-serif;font-size:13;text-anchor:middle;" transform="matrix(1 0 0 1 559.711 322)">Ultralight</text>
  <text style="stroke:none;fill:black;font-family:sans-serif;font-size:13;text-anchor:middle;" transform="matrix(1 0 0 1 856.422 322)">Thin</text>
  <text style="stroke:none;fill:black;font-family:sans-serif;font-size:13;text-anchor:middle;" transform="matrix(1 0 0 1 1153.13 322)">Light</text>
  <text style="stroke:none;fill:black;font-family:sans-serif;font-size:13;text-anchor:middle;" transform="matrix(1 0 0 1 1449.84 322)">Regular</text>
  <text style="stroke:none;fill:black;font-family:sans-serif;font-size:13;text-anchor:middle;" transform="matrix(1 0 0 1 1746.56 322)">Medium</text>
  <text style="stroke:none;fill:black;font-family:sans-serif;font-size:13;text-anchor:middle;" transform="matrix(1 0 0 1 2043.27 322)">Semibold</text>
  <text style="stroke:none;fill:black;font-family:sans-serif;font-size:13;text-anchor:middle;" transform="matrix(1 0 0 1 2339.98 322)">Bold</text>
  <text style="stroke:none;fill:black;font-family:sans-serif;font-size:13;text-anchor:middle;" transform="matrix(1 0 0 1 2636.69 322)">Heavy</text>
  <text style="stroke:none;fill:black;font-family:sans-serif;font-size:13;text-anchor:middle;" transform="matrix(1 0 0 1 2933.4 322)">Black</text>
  <line style="fill:none;stroke:black;opacity:1;stroke-width:0.5;" x1="263" x2="3036" y1="1903" y2="1903"/>
  <g transform="matrix(0.2 0 0 0.2 263 1933)">
   <path d="m46.2402 4.15039c21.7773 0 39.4531-17.627 39.4531-39.4043s-17.6758-39.4043-39.4531-39.4043c-21.7285 0-39.4043 17.627-39.4043 39.4043s17.6758 39.4043 39.4043 39.4043Zm0-7.42188c-17.6758 0-31.9336-14.3066-31.9336-31.9824s14.2578-31.9824 31.9336-31.9824 31.9824 14.3066 31.9824 31.9824-14.3066 31.9824-31.9824 31.9824Zm3.61328-17.7734v-28.4668c0-2.24609-1.46484-3.75977-3.71094-3.75977-2.14844 0-3.61328 1.51367-3.61328 3.75977v28.4668c0 2.19727 1.46484 3.71094 3.61328 3.71094 2.24609 0 3.71094-1.51367 3.71094-3.71094Zm-17.8223-10.5957h28.418c2.19727 0 3.71094-1.46484 3.71094-3.61328 0-2.19727-1.51367-3.71094-3.71094-3.71094h-28.418c-2.24609 0-3.75977 1.51367-3.75977 3.71094 0 2.14844 1.51367 3.61328 3.75977 3.61328Z"/>
  </g>
  <g transform="matrix(0.2 0 0 0.2 281.506 1933)">
   <path d="m58.5449 14.5508c27.4902 0 49.8047-22.3145 49.8047-49.8047s-22.3145-49.8047-49.8047-49.8047-49.8047 22.3145-49.8047 49.8047 22.3145 49.8047 49.8047 49.8047Zm0-8.30078c-22.9492 0-41.5039-18.5547-41.5039-41.5039s18.5547-41.5039 41.5039-41.5039 41.5039 18.5547 41.5039 41.5039-18.5547 41.5039-41.5039 41.5039Zm4.05273-23.0957v-36.9141c0-2.49023-1.70898-4.19922-4.15039-4.19922-2.39258 0-4.05273 1.70898-4.05273 4.19922v36.9141c0 2.44141 1.66016 4.15039 4.05273 4.15039 2.44141 0 4.15039-1.66016 4.15039-4.15039Zm-22.5586-14.4043h36.9629c2.44141 0 4.15039-1.61133 4.15039-4.00391 0-2.44141-1.70898-4.15039-4.15039-4.15039h-36.9629c-2.49023 0-4.15039 1.70898-4.15039 4.15039 0 2.39258 1.66016 4.00391 4.15039 4.00391Z"/>
  </g>
  <g transform="matrix(0.2 0 0 0.2 304.924 1933)">
   <path d="m74.8535 28.3203c35.1074 0 63.623-28.4668 63.623-63.5742s-28.5156-63.623-63.623-63.623-63.5742 28.5156-63.5742 63.623 28.4668 63.5742 63.5742 63.5742Zm0-9.08203c-30.127 0-54.4922-24.3652-54.4922-54.4922s24.3652-54.4922 54.4922-54.4922 54.4922 24.3652 54.4922 54.4922-24.3652 54.4922-54.4922 54.4922Zm4.44336-30.3223v-48.4863c0-2.73438-1.85547-4.63867-4.54102-4.63867-2.58789 0-4.44336 1.9043-4.44336 4.63867v48.4863c0 2.68555 1.85547 4.58984 4.44336 4.58984 2.68555 0 4.54102-1.85547 4.54102-4.58984Zm-28.7109-19.7754h48.4863c2.68555 0 4.58984-1.80664 4.58984-4.39453 0-2.73438-1.85547-4.58984-4.58984-4.58984h-48.4863c-2.73438 0-4.58984 1.85547-4.58984 4.58984 0 2.58789 1.85547 4.39453 4.58984 4.39453Z"/>
  </g>
  <text style="stroke:none;fill:black;font-family:sans-serif;font-size:13;font-weight:bold;" transform="matrix(1 0 0 1 263 1953)">Design Variations</text>
  <text style="stroke:none;fill:black;font-family:sans-serif;font-size:13;" transform="matrix(1 0 0 1 263 1971)">Symbols are supported in up to nine weights and three scales.</text>
  <text style="stroke:none;fill:black;font-family:sans-serif;font-size:13;" transform="matrix(1 0 0 1 263 1989)">For optimal layout with text and other symbols, vertically align</text>
  <text style="stroke:none;fill:black;font-family:sans-serif;font-size:13;" transform="matrix(1 0 0 1 263 2007)">symbols with the adjacent text.</text>
  <line style="fill:none;stroke:#00AEEF;stroke-width:0.5;opacity:1.0;" x1="776" x2="776" y1="1919" y2="1933"/>
  <g transform="matrix(0.2 0 0 0.2 776 1933)">
   <path d="m16.5527 0.78125c2.58789 0 3.85742-0.976562 4.78516-3.71094l20.5566-57.5195h0.244141l20.6055 57.5195c0.927734 2.73438 2.19727 3.71094 4.73633 3.71094 2.58789 0 4.24805-1.5625 4.24805-4.00391 0-0.830078-0.146484-1.61133-0.537109-2.63672l-22.9004-60.9863c-1.12305-2.97852-3.125-4.49219-6.25-4.49219-3.02734 0-5.07812 1.46484-6.15234 4.44336l-22.9004 61.084c-0.390625 1.02539-0.537109 1.80664-0.537109 2.63672 0 2.44141 1.5625 3.95508 4.10156 3.95508Zm10.2051-20.9473h30.6641c2.00195 0 3.66211-1.66016 3.66211-3.66211 0-2.05078-1.66016-3.66211-3.66211-3.66211h-30.6641c-2.00195 0-3.66211 1.61133-3.66211 3.66211 0 2.00195 1.66016 3.66211 3.66211 3.66211Z"/>
  </g>
  <line style="fill:none;stroke:#00AEEF;stroke-width:0.5;opacity:1.0;" x1="792.836" x2="792.836" y1="1919" y2="1933"/>
  <text style="stroke:none;fill:black;font-family:sans-serif;font-size:13;font-weight:bold;" transform="matrix(1 0 0 1 776 1953)">Margins</text>
  <text style="stroke:none;fill:black;font-family:sans-serif;font-size:13;" transform="matrix(1 0 0 1 776 1971)">Leading and trailing margins on the left and right side of each symbol</text>
  <text style="stroke:none;fill:black;font-family:sans-serif;font-size:13;" transform="matrix(1 0 0 1 776 1989)">can be adjusted by modifying the x-location of the margin guidelines.</text>
  <text style="stroke:none;fill:black;font-family:sans-serif;font-size:13;" transform="matrix(1 0 0 1 776 2007)">Modifications are automatically applied proportionally to all</text>
  <text style="stroke:none;fill:black;font-family:sans-serif;font-size:13;" transform="matrix(1 0 0 1 776 2025)">scales and weights.</text>
  <g transform="matrix(0.2 0 0 0.2 1289 1933)">
   <path d="m14.209 13.1348 7.86133 7.86133c4.29688 4.39453 9.32617 4.10156 13.8672-1.02539l60.6934-68.2129-4.88281-4.88281-60.2539 67.6758c-1.80664 1.95312-3.4668 2.44141-5.81055 0.0976562l-5.17578-5.12695c-2.29492-2.29492-1.80664-3.95508 0.195312-5.81055l67.4805-62.1582-4.88281-4.83398-68.0664 62.5977c-4.98047 4.58984-5.32227 9.47266-1.02539 13.8184Zm44.873-97.4609c-2.05078 2.00195-2.24609 4.88281-1.07422 6.78711 1.12305 1.80664 3.4668 3.02734 6.5918 2.24609 5.85938-1.66016 12.5977-2.39258 18.8965 0.927734l-2.68555 7.12891c-1.61133 4.00391-0.732422 6.88477 1.70898 9.42383l10.2539 10.3027c2.34375 2.39258 4.54102 2.44141 7.08008 1.95312l4.44336-0.732422 2.58789 2.53906-0.195312 2.24609c-0.0976562 2.29492 0.537109 4.29688 2.7832 6.49414l3.36914 3.32031c2.29492 2.29492 5.51758 2.49023 7.8125 0.195312l12.9883-13.0371c2.29492-2.34375 2.14844-5.37109-0.195312-7.66602l-3.41797-3.41797c-2.19727-2.19727-4.05273-3.02734-6.34766-2.88086l-2.34375 0.244141-2.44141-2.44141 1.02539-4.6875c0.634766-2.73438-0.244141-4.98047-2.88086-7.61719l-11.2793-11.1816c-12.9395-12.8418-35.5957-11.0352-46.6797-0.146484Zm7.08008 2.05078c8.78906-6.39648 25.9766-5.66406 33.6914 1.95312l12.3047 12.207c1.02539 1.02539 1.2207 1.80664 0.927734 3.32031l-1.46484 6.64062 6.73828 6.68945 4.39453-0.244141c1.12305-0.0488281 1.51367 0.0488281 2.34375 0.878906l2.53906 2.49023-10.8398 10.8398-2.49023-2.49023c-0.830078-0.878906-0.976562-1.2207-0.927734-2.39258l0.292969-4.3457-6.68945-6.73828-6.83594 1.17188c-1.41602 0.292969-2.05078 0.195312-3.17383-0.878906l-8.93555-8.88672c-1.07422-1.02539-1.17188-1.70898-0.488281-3.36914l4.58984-11.4746c-6.10352-6.34766-17.041-7.51953-25.5859-4.58984-0.683594 0.244141-0.927734-0.390625-0.390625-0.78125Z"/>
  </g>
  <text style="stroke:none;fill:black;font-family:sans-serif;font-size:13;font-weight:bold;" transform="matrix(1 0 0 1 1289 1953)">Exporting</text>
  <text style="stroke:none;fill:black;font-family:sans-serif;font-size:13;" transform="matrix(1 0 0 1 1289 1971)">Symbols should be outlined when exporting to ensure the</text>
  <text style="stroke:none;fill:black;font-family:sans-serif;font-size:13;" transform="matrix(1 0 0 1 1289 1989)">design is preserved when submitting to Xcode.</text>
  <text id="template-version" style="stroke:none;fill:black;font-family:sans-serif;font-size:13;text-anchor:end;" transform="matrix(1 0 0 1 3036 1933)">Template v.2.0</text>
  <text style="stroke:none;fill:black;font-family:sans-serif;font-size:13;text-anchor:end;" transform="matrix(1 0 0 1 3036 1951)">Requires Xcode 12 or greater</text>
  <text id="descriptive-name" style="stroke:none;fill:black;font-family:sans-serif;font-size:13;text-anchor:end;" transform="matrix(1 0 0 1 3036 1969)">Generated from platter.filled.top.iphone</text>
  <text style="stroke:none;fill:black;font-family:sans-serif;font-size:13;text-anchor:end;" transform="matrix(1 0 0 1 3036 1987)">Typeset at 100.0 points</text>
  <text style="stroke:none;fill:black;font-family:sans-serif;font-size:13;" transform="matrix(1 0 0 1 263 726)">Small</text>
  <text style="stroke:none;fill:black;font-family:sans-serif;font-size:13;" transform="matrix(1 0 0 1 263 1156)">Medium</text>
  <text style="stroke:none;fill:black;font-family:sans-serif;font-size:13;" transform="matrix(1 0 0 1 263 1586)">Large</text>
 </g>
 <g id="Guides">
  <g id="H-reference" style="fill:#27AAE1;stroke:none;" transform="matrix(1 0 0 1 339 696)">
   <path d="M0.993654 0L3.63775 0L29.3281-67.1323L30.0303-67.1323L30.0303-70.459L28.1226-70.459ZM11.6885-24.4799L46.9815-24.4799L46.2315-26.7285L12.4385-26.7285ZM55.1196 0L57.7637 0L30.6382-70.459L29.4326-70.459L29.4326-67.1323Z"/>
  </g>
  <line id="Baseline-S" style="fill:none;stroke:#27AAE1;opacity:1;stroke-width:0.5;" x1="263" x2="3036" y1="696" y2="696"/>
  <line id="Capline-S" style="fill:none;stroke:#27AAE1;opacity:1;stroke-width:0.5;" x1="263" x2="3036" y1="625.541" y2="625.541"/>
  <g id="H-reference" style="fill:#27AAE1;stroke:none;" transform="matrix(1 0 0 1 339 1126)">
   <path d="M0.993654 0L3.63775 0L29.3281-67.1323L30.0303-67.1323L30.0303-70.459L28.1226-70.459ZM11.6885-24.4799L46.9815-24.4799L46.2315-26.7285L12.4385-26.7285ZM55.1196 0L57.7637 0L30.6382-70.459L29.4326-70.459L29.4326-67.1323Z"/>
  </g>
  <line id="Baseline-M" style="fill:none;stroke:#27AAE1;opacity:1;stroke-width:0.5;" x1="263" x2="3036" y1="1126" y2="1126"/>
  <line id="Capline-M" style="fill:none;stroke:#27AAE1;opacity:1;stroke-width:0.5;" x1="263" x2="3036" y1="1055.54" y2="1055.54"/>
  <g id="H-reference" style="fill:#27AAE1;stroke:none;" transform="matrix(1 0 0 1 339 1556)">
   <path d="M0.993654 0L3.63775 0L29.3281-67.1323L30.0303-67.1323L30.0303-70.459L28.1226-70.459ZM11.6885-24.4799L46.9815-24.4799L46.2315-26.7285L12.4385-26.7285ZM55.1196 0L57.7637 0L30.6382-70.459L29.4326-70.459L29.4326-67.1323Z"/>
  </g>
  <line id="Baseline-L" style="fill:none;stroke:#27AAE1;opacity:1;stroke-width:0.5;" x1="263" x2="3036" y1="1556" y2="1556"/>
  <line id="Capline-L" style="fill:none;stroke:#27AAE1;opacity:1;stroke-width:0.5;" x1="263" x2="3036" y1="1485.54" y2="1485.54"/>
  <line id="right-margin" style="fill:none;stroke:#00AEEF;stroke-width:0.5;opacity:1.0;" x1="1499.92" x2="1499.92" y1="1030.79" y2="1150.12"/>
  <line id="left-margin" style="fill:none;stroke:#00AEEF;stroke-width:0.5;opacity:1.0;" x1="1399.77" x2="1399.77" y1="1030.79" y2="1150.12"/>
 </g>
 <g id="Symbols">
  <g id="Black-L" transform="matrix(1 0 0 1 2861.61 1556)">
   <path d="M55.3653-60.7875L88.1878-60.7875C91.4898-60.7875 93.7404-63.0381 93.7404-66.4986L93.7404-76.0836C93.7404-79.544 91.4898-81.7946 88.1878-81.7946L55.3653-81.7946C52.0633-81.7946 49.8127-79.544 49.8127-76.0836L49.8127-66.4986C49.8127-63.0381 52.0633-60.7875 55.3653-60.7875ZM21.2056 20.4185C21.2056 32.8008 29.8689 41.1276 42.7474 41.1276L102.032 41.1276C114.209 41.1276 122.368 32.8008 122.368 20.3601L122.368-91.1528C122.368-103.593 114.209-111.92 102.032-111.92L42.7474-111.92C29.8689-111.92 21.2056-103.593 21.2056-91.2112ZM41.1867 13.415L41.1867-84.2076C41.1867-88.1625 43.6837-90.4206 47.5842-90.4206L96.0273-90.4206C99.8902-90.4206 102.366-88.0457 102.366-84.1492L102.366 13.3565C102.366 17.253 99.8902 19.6292 96.0273 19.6292L47.5842 19.6292C43.6837 19.6292 41.1867 17.3698 41.1867 13.415Z"/>
  </g>
  <g id="Heavy-L" transform="matrix(1 0 0 1 2566.73 1556)">
   <path d="M53.4493-61.8094L86.4345-61.8094C89.7542-61.8094 92.0004-64.0556 92.0004-67.5249L92.0004-76.5854C92.0004-80.0547 89.7542-82.3008 86.4345-82.3008L53.4493-82.3008C50.1296-82.3008 47.8835-80.0547 47.8835-76.5854L47.8835-67.5249C47.8835-64.0556 50.1296-61.8094 53.4493-61.8094ZM21.8948 19.0602C21.8948 30.8404 30.0854 38.7072 42.3447 38.7072L98.4762 38.7072C110.194 38.7072 118.019 30.8404 118.019 19.0155L118.019-89.758C118.019-101.583 110.194-109.45 98.4762-109.45L42.3447-109.45C30.0854-109.45 21.8948-101.583 21.8948-89.8026ZM39.3952 13.3524L39.3952-84.0949C39.3952-88.3858 42.0285-90.7891 46.3207-90.7891L93.6077-90.7891C97.8855-90.7891 100.489-88.2966 100.489-84.0503L100.489 13.3078C100.489 17.5541 97.8855 20.0522 93.6077 20.0522L46.3207 20.0522C42.0285 20.0522 39.3952 17.6434 39.3952 13.3524Z"/>
  </g>
  <g id="Bold-L" transform="matrix(1 0 0 1 2272.32 1556)">
   <path d="M51.0303-63.0623L84.2377-63.0623C87.5878-63.0623 89.8264-65.3009 89.8264-68.7854L89.8264-77.2003C89.8264-80.6849 87.5878-82.9234 84.2377-82.9234L51.0303-82.9234C47.6801-82.9234 45.4416-80.6849 45.4416-77.2003L45.4416-68.7854C45.4416-65.3009 47.6801-63.0623 51.0303-63.0623ZM22.6658 17.3774C22.6658 28.4868 30.25 35.7775 41.8005 35.7775L94.0807 35.7775C105.268 35.7775 112.64 28.4868 112.64 17.3482L112.64-88.0292C112.64-99.1678 105.268-106.458 94.0807-106.458L41.8005-106.458C30.25-106.458 22.6658-99.1678 22.6658-88.0584ZM37.1076 13.1862L37.1076-83.8671C37.1076-88.6624 39.9173-91.2574 44.7682-91.2574L90.529-91.2574C95.3886-91.2574 98.1604-88.604 98.1604-83.8379L98.1604 13.157C98.1604 17.9231 95.3886 20.5897 90.529 20.5897L44.7682 20.5897C39.9173 20.5897 37.1076 17.9815 37.1076 13.1862Z"/>
  </g>
  <g id="Semibold-L" transform="matrix(1 0 0 1 1977.2 1556)">
   <path d="M49.3626-63.9261L82.7232-63.9261C86.0944-63.9261 88.3277-66.1593 88.3277-69.6544L88.3277-77.6243C88.3277-81.1193 86.0944-83.3526 82.7232-83.3526L49.3626-83.3526C45.9915-83.3526 43.7582-81.1193 43.7582-77.6243L43.7582-69.6544C43.7582-66.1593 45.9915-63.9261 49.3626-63.9261ZM23.1973 16.2173C23.1973 26.8642 30.3635 33.7578 41.4254 33.7578L91.0505 33.7578C101.871 33.7578 108.932 26.8642 108.932 16.1987L108.932-86.8373C108.932-97.5028 101.871-104.396 91.0505-104.396L41.4254-104.396C30.3635-104.396 23.1973-97.5028 23.1973-86.8559ZM35.5305 13.0715L35.5305-83.7101C35.5305-88.8532 38.4619-91.5803 43.6979-91.5803L88.4065-91.5803C93.6673-91.5803 96.5554-88.816 96.5554-83.6915L96.5554 13.053C96.5554 18.1774 93.6673 20.9602 88.4065 20.9602L43.6979 20.9602C38.4619 20.9602 35.5305 18.2146 35.5305 13.0715Z"/>
  </g>
  <g id="Medium-L" transform="matrix(1 0 0 1 1681.7 1556)">
   <path d="M48.0981-64.581L81.5749-64.581C84.962-64.581 87.1913-66.8103 87.1913-70.3133L87.1913-77.9457C87.1913-81.4487 84.962-83.678 81.5749-83.678L48.0981-83.678C44.711-83.678 42.4817-81.4487 42.4817-77.9457L42.4817-70.3133C42.4817-66.8103 44.711-64.581 48.0981-64.581ZM23.6003 15.3377C23.6003 25.6339 30.4495 32.2263 41.141 32.2263L88.7528 32.2263C99.2956 32.2263 106.12 25.6339 106.12 15.3271L106.12-85.9336C106.12-96.2404 99.2956-102.833 88.7528-102.833L41.141-102.833C30.4495-102.833 23.6003-96.2404 23.6003-85.9441ZM34.3346 12.9846L34.3346-83.591C34.3346-88.9977 37.3583-91.8251 42.8863-91.8251L86.7972-91.8251C92.3621-91.8251 95.3384-88.9767 95.3384-83.5805L95.3384 12.9741C95.3384 18.3703 92.3621 21.2411 86.7972 21.2411L42.8863 21.2411C37.3583 21.2411 34.3346 18.3913 34.3346 12.9846Z"/>
  </g>
  <g id="Regular-L" transform="matrix(1 0 0 1 1386.56 1556)">
   <path d="M46.4488-65.4352L80.0771-65.4352C83.4849-65.4352 85.709-67.6593 85.709-71.1727L85.709-78.365C85.709-81.8783 83.4849-84.1024 80.0771-84.1024L46.4488-84.1024C43.0409-84.1024 40.8168-81.8783 40.8168-78.365L40.8168-71.1727C40.8168-67.6593 43.0409-65.4352 46.4488-65.4352ZM24.126 14.1903C24.126 24.0292 30.5617 30.2288 40.77 30.2288L85.7559 30.2288C95.9364 30.2288 102.453 24.0292 102.453 14.1903L102.453-84.7548C102.453-94.5937 95.9364-100.793 85.7559-100.793L40.77-100.793C30.5617-100.793 24.126-94.5937 24.126-84.7548ZM32.7748 12.8712L32.7748-83.4357C32.7748-89.1864 35.9189-92.1444 41.8278-92.1444L84.6981-92.1444C90.6597-92.1444 93.751-89.1864 93.751-83.4357L93.751 12.8712C93.751 18.6218 90.6597 21.6076 84.6981 21.6076L41.8278 21.6076C35.9189 21.6076 32.7748 18.6218 32.7748 12.8712Z"/>
  </g>
  <g id="Light-L" transform="matrix(1 0 0 1 1091.68 1556)">
   <path d="M44.483-66.2177L78.3975-66.2177C81.8817-66.2177 84.0867-68.4227 84.0867-71.9743L84.0867-78.7467C84.0867-82.2982 81.8817-84.5032 78.3975-84.5032L44.483-84.5032C40.9988-84.5032 38.7938-82.2982 38.7938-78.7467L38.7938-71.9743C38.7938-68.4227 40.9988-66.2177 44.483-66.2177ZM24.126 13.0261C24.126 22.8841 30.0083 28.6447 40.102 28.6447L82.7786 28.6447C92.8255 28.6447 98.7882 22.8841 98.7882 13.0261L98.7882-83.5524C98.7882-93.4104 92.8255-99.1711 82.7786-99.1711L40.102-99.1711C30.0083-99.1711 24.126-93.4104 24.126-83.5524ZM30.7518 12.1842L30.7518-82.7105C30.7518-89.3772 34.0676-92.5452 40.8353-92.5452L82.0452-92.5452C88.8466-92.5452 92.1287-89.3772 92.1287-82.7105L92.1287 12.1842C92.1287 18.8509 88.8466 22.0656 82.0452 22.0656L40.8353 22.0656C34.0676 22.0656 30.7518 18.8509 30.7518 12.1842Z"/>
  </g>
  <g id="Thin-L" transform="matrix(1 0 0 1 797.388 1556)">
   <path d="M41.8831-67.2526L76.1763-67.2526C79.7614-67.2526 81.9412-69.4324 81.9412-73.0344L81.9412-79.2515C81.9412-82.8535 79.7614-85.0333 76.1763-85.0333L41.8831-85.0333C38.2979-85.0333 36.1182-82.8535 36.1182-79.2515L36.1182-73.0344C36.1182-69.4324 38.2979-67.2526 41.8831-67.2526ZM24.126 11.4864C24.126 21.3696 29.2762 26.5496 39.2185 26.5496L78.8408 26.5496C88.7111 26.5496 93.9418 21.3696 93.9418 11.4864L93.9418-81.9622C93.9418-91.8454 88.7111-97.0255 78.8408-97.0255L39.2185-97.0255C29.2762-97.0255 24.126-91.8454 24.126-81.9622ZM28.0762 11.2755L28.0762-81.7513C28.0762-89.6296 31.6191-93.0753 39.5228-93.0753L78.5366-93.0753C86.4487-93.0753 89.9832-89.6296 89.9832-81.7513L89.9832 11.2755C89.9832 19.1538 86.4487 22.6714 78.5366 22.6714L39.5228 22.6714C31.6191 22.6714 28.0762 19.1538 28.0762 11.2755Z"/>
  </g>
  <g id="Ultralight-L" transform="matrix(1 0 0 1 501.918 1556)">
   <path d="M40.5514-67.7827L75.0385-67.7827C78.6754-67.7827 80.8423-69.9496 80.8423-73.5774L80.8423-79.5101C80.8423-83.138 78.6754-85.3048 75.0385-85.3048L40.5514-85.3048C36.9146-85.3048 34.7477-83.138 34.7477-79.5101L34.7477-73.5774C34.7477-69.9496 36.9146-67.7827 40.5514-67.7827ZM24.126 10.6977C24.126 20.5938 28.9013 25.4766 38.766 25.4766L76.824 25.4766C86.6037 25.4766 91.4595 20.5938 91.4595 10.6977L91.4595-81.1477C91.4595-91.0438 86.6037-95.9266 76.824-95.9266L38.766-95.9266C28.9013-95.9266 24.126-91.0438 24.126-81.1477ZM26.7057 10.81L26.7057-81.26C26.7057-89.7589 30.365-93.3468 38.8505-93.3468L76.7395-93.3468C85.2204-93.3468 88.8842-89.7589 88.8842-81.26L88.8842 10.81C88.8842 19.3089 85.2204 22.9817 76.7395 22.9817L38.8505 22.9817C30.365 22.9817 26.7057 19.3089 26.7057 10.81Z"/>
  </g>
  <g id="Black-M" transform="matrix(1 0 0 1 2876.46 1126)">
   <path d="M44.2741-54.2582L69.6021-54.2582C72.1554-54.2582 73.9002-56.003 73.9002-58.6815L73.9002-66.5013C73.9002-69.1798 72.1554-70.9246 69.6021-70.9246L44.2741-70.9246C41.7208-70.9246 39.976-69.1798 39.976-66.5013L39.976-58.6815C39.976-56.003 41.7208-54.2582 44.2741-54.2582ZM15.8366 8.89302C15.8366 19.0061 22.8796 25.7931 33.3738 25.7931L81.7014 25.7931C91.5107 25.7931 98.0451 19.0061 98.0451 8.83592L98.0451-79.5914C98.0451-89.7616 91.5107-96.5485 81.7014-96.5485L33.3738-96.5485C22.8796-96.5485 15.8366-89.7616 15.8366-79.6485ZM33.1745 2.41804L33.1745-73.1735C33.1745-76.0728 35.0153-77.7261 37.8169-77.7261L76.1164-77.7261C78.8664-77.7261 80.7017-75.9586 80.7017-73.1164L80.7017 2.36094C80.7017 5.20315 78.8664 6.97032 76.1164 6.97032L37.8169 6.97032C35.0153 6.97032 33.1745 5.31734 33.1745 2.41804Z"/>
  </g>
  <g id="Heavy-M" transform="matrix(1 0 0 1 2581.37 1126)">
   <path d="M42.5825-55.1849L68.0431-55.1849C70.6066-55.1849 72.3489-56.9272 72.3489-59.6109L72.3489-66.9567C72.3489-69.6403 70.6066-71.3826 68.0431-71.3826L42.5825-71.3826C40.0189-71.3826 38.2766-69.6403 38.2766-66.9567L38.2766-59.6109C38.2766-56.9272 40.0189-55.1849 42.5825-55.1849ZM16.5103 7.67254C16.5103 17.1953 23.1423 23.5731 33.0417 23.5731L78.4998 23.5731C87.8735 23.5731 94.1316 17.1953 94.1316 7.62892L94.1316-78.3388C94.1316-87.9053 87.8735-94.283 78.4998-94.283L33.0417-94.283C23.1423-94.283 16.5103-87.9053 16.5103-78.3825ZM31.6099 2.42031L31.6099-73.1302C31.6099-76.2735 33.568-78.0492 36.6733-78.0492L73.9958-78.0492C77.0739-78.0492 79.0156-76.1863 79.0156-73.0866L79.0156 2.37669C79.0156 5.47637 77.0739 7.34161 73.9958 7.34161L36.6733 7.34161C33.568 7.34161 31.6099 5.56362 31.6099 2.42031Z"/>
  </g>
  <g id="Bold-M" transform="matrix(1 0 0 1 2286.47 1126)">
   <path d="M40.6901-56.2217L66.2991-56.2217C68.8741-56.2217 70.6135-57.9611 70.6135-60.6505L70.6135-67.4661C70.6135-70.1554 68.8741-71.8948 66.2991-71.8948L40.6901-71.8948C38.1151-71.8948 36.3757-70.1554 36.3757-67.4661L36.3757-60.6505C36.3757-57.9611 38.1151-56.2217 40.6901-56.2217ZM17.264 6.30727C17.264 15.1697 23.4362 21.0898 32.6703 21.0898L74.9184 21.0898C83.8047 21.0898 89.7538 15.1697 89.7538 6.27872L89.7538-76.9377C89.7538-85.8287 83.8047-91.7487 74.9184-91.7487L32.6703-91.7487C23.4362-91.7487 17.264-85.8287 17.264-76.9662ZM29.8597 2.42286L29.8597-73.0818C29.8597-76.4981 31.949-78.4108 35.3941-78.4108L71.6236-78.4108C75.0687-78.4108 77.1295-76.441 77.1295-73.0533L77.1295 2.39431C77.1295 5.78202 75.0687 7.75694 71.6236 7.75694L35.3941 7.75694C31.949 7.75694 29.8597 5.83911 29.8597 2.42286Z"/>
  </g>
  <g id="Semibold-M" transform="matrix(1 0 0 1 1991.01 1126)">
   <path d="M39.3855-56.9364L65.0968-56.9364C67.6797-56.9364 69.4171-58.6738 69.4171-61.3672L69.4171-67.8172C69.4171-70.5106 67.6797-72.248 65.0968-72.248L39.3855-72.248C36.8026-72.248 35.0651-70.5106 35.0651-67.8172L35.0651-61.3672C35.0651-58.6738 36.8026-56.9364 39.3855-56.9364ZM17.7836 5.36606C17.7836 13.7732 23.6388 19.3778 32.4142 19.3778L72.4493 19.3778C80.9997 19.3778 86.7358 13.7732 86.7358 5.3479L86.7358-75.9718C86.7358-84.3971 80.9997-90.0016 72.4493-90.0016L32.4142-90.0016C23.6388-90.0016 17.7836-84.3971 17.7836-75.9899ZM28.6531 2.42461L28.6531-73.0485C28.6531-76.6529 30.8329-78.66 34.5122-78.66L69.9883-78.66C73.6864-78.66 75.8292-76.6166 75.8292-73.0303L75.8292 2.40646C75.8292 5.99273 73.6864 8.04327 69.9883 8.04327L34.5122 8.04327C30.8329 8.04327 28.6531 6.02904 28.6531 2.42461Z"/>
  </g>
  <g id="Medium-M" transform="matrix(1 0 0 1 1695.24 1126)">
   <path d="M38.3963-57.4784L64.1852-57.4784C66.7741-57.4784 68.51-59.2143 68.51-61.9106L68.51-68.0835C68.51-70.7798 66.7741-72.5158 64.1852-72.5158L38.3963-72.5158C35.8074-72.5158 34.0715-70.7798 34.0715-68.0835L34.0715-61.9106C34.0715-59.2143 35.8074-57.4784 38.3963-57.4784ZM18.1775 4.65239C18.1775 12.7144 23.7925 18.0797 32.2201 18.0797L70.5772 18.0797C78.8729 18.0797 84.4474 12.7144 84.4474 4.64211L84.4474-75.2393C84.4474-83.3116 78.8729-88.6769 70.5772-88.6769L32.2201-88.6769C23.7925-88.6769 18.1775-83.3116 18.1775-75.2496ZM27.7382 2.42595L27.7382-73.0232C27.7382-76.7703 29.9866-78.849 33.8435-78.849L68.7483-78.849C72.6382-78.849 74.8433-76.7497 74.8433-73.0129L74.8433 2.41567C74.8433 6.1525 72.6382 8.26037 68.7483 8.26037L33.8435 8.26037C29.9866 8.26037 27.7382 6.17305 27.7382 2.42595Z"/>
  </g>
  <g id="Regular-M" transform="matrix(1 0 0 1 1399.77 1126)">
   <path d="M37.106-58.1852L62.9961-58.1852C65.5928-58.1852 67.3268-59.9192 67.3268-62.6194L67.3268-68.4308C67.3268-71.131 65.5928-72.865 62.9961-72.865L37.106-72.865C34.5093-72.865 32.7753-71.131 32.7753-68.4308L32.7753-62.6194C32.7753-59.9192 34.5093-58.1852 37.106-58.1852ZM18.6914 3.72152C18.6914 11.3332 23.9928 16.3865 31.9668 16.3865L68.1353 16.3865C76.0987 16.3865 81.4625 11.3332 81.4625 3.72152L81.4625-74.284C81.4625-81.8957 76.0987-86.949 68.1353-86.949L31.9668-86.949C23.9928-86.949 18.6914-81.8957 18.6914-74.284ZM26.5449 2.42768L26.5449-72.9902C26.5449-76.9234 28.8828-79.0955 32.9713-79.0955L67.1309-79.0955C71.2711-79.0955 73.5573-76.9234 73.5573-72.9902L73.5573 2.42768C73.5573 6.36089 71.2711 8.54356 67.1309 8.54356L32.9713 8.54356C28.8828 8.54356 26.5449 6.36089 26.5449 2.42768Z"/>
  </g>
  <g id="Light-M" transform="matrix(1 0 0 1 1104.7 1126)">
   <path d="M35.3436-58.8868L61.4904-58.8868C64.1555-58.8868 65.8724-60.6036 65.8724-63.3381L65.8724-68.7731C65.8724-71.5075 64.1555-73.2244 61.4904-73.2244L35.3436-73.2244C32.6784-73.2244 30.9616-71.5075 30.9616-68.7731L30.9616-63.3381C30.9616-60.6036 32.6784-58.8868 35.3436-58.8868ZM18.6914 2.67776C18.6914 10.3066 23.4966 14.9663 31.368 14.9663L65.466 14.9663C73.3097 14.9663 78.1772 10.3066 78.1772 2.67776L78.1772-73.206C78.1772-80.8349 73.3097-85.4945 65.466-85.4945L31.368-85.4945C23.4966-85.4945 18.6914-80.8349 18.6914-73.206ZM24.7311 1.81169L24.7311-72.34C24.7311-77.0945 27.223-79.4548 32.0815-79.4548L64.7524-79.4548C69.6455-79.4548 72.1028-77.0945 72.1028-72.34L72.1028 1.81169C72.1028 6.56622 69.6455 8.95422 64.7524 8.95422L32.0815 8.95422C27.223 8.95422 24.7311 6.56622 24.7311 1.81169Z"/>
  </g>
  <g id="Thin-M" transform="matrix(1 0 0 1 810.16 1126)">
   <path d="M33.0126-59.8146L59.4989-59.8146C62.2545-59.8146 63.9488-61.5089 63.9488-64.2886L63.9488-69.2257C63.9488-72.0054 62.2545-73.6996 59.4989-73.6996L33.0126-73.6996C30.257-73.6996 28.5627-72.0054 28.5627-69.2257L28.5627-64.2886C28.5627-61.5089 30.257-59.8146 33.0126-59.8146ZM18.6914 1.29729C18.6914 8.94875 22.8403 13.0879 30.5759 13.0879L61.9356 13.0879C69.6209 13.0879 73.8321 8.94875 73.8321 1.29729L73.8321-71.7803C73.8321-79.4318 69.6209-83.5709 61.9356-83.5709L30.5759-83.5709C22.8403-83.5709 18.6914-79.4318 18.6914-71.7803ZM22.3323 0.996987L22.3323-71.48C22.3323-77.3208 25.0279-79.9301 30.9047-79.9301L61.6068-79.9301C67.4956-79.9301 70.1792-77.3208 70.1792-71.48L70.1792 0.996987C70.1792 6.83779 67.4956 9.49735 61.6068 9.49735L30.9047 9.49735C25.0279 9.49735 22.3323 6.83779 22.3323 0.996987Z"/>
  </g>
  <g id="Ultralight-M" transform="matrix(1 0 0 1 514.562 1126)">
   <path d="M31.8187-60.2899L58.4788-60.2899C61.2809-60.2899 62.9635-61.9725 62.9635-64.7754L62.9635-69.4575C62.9635-72.2604 61.2809-73.943 58.4788-73.943L31.8187-73.943C29.0167-73.943 27.3341-72.2604 27.3341-69.4575L27.3341-64.7754C27.3341-61.9725 29.0167-60.2899 31.8187-60.2899ZM18.6914 0.590222C18.6914 8.25328 22.5042 12.1258 30.1702 12.1258L60.1274 12.1258C67.7315 12.1258 71.6066 8.25328 71.6066 0.590222L71.6066-71.05C71.6066-78.7131 67.7315-82.5857 60.1274-82.5857L30.1702-82.5857C22.5042-82.5857 18.6914-78.7131 18.6914-71.05ZM21.1036 0.579701L21.1036-71.0395C21.1036-77.4367 23.9035-80.1735 30.302-80.1735L59.9956-80.1735C66.3945-80.1735 69.194-77.4367 69.194-71.0395L69.194 0.579701C69.194 6.97688 66.3945 9.77554 59.9956 9.77554L30.302 9.77554C23.9035 9.77554 21.1036 6.97688 21.1036 0.579701Z"/>
  </g>
  <g id="Black-S" transform="matrix(1 0 0 1 2888.38 696)">
   <path d="M35.1074-49.9023L54.9316-49.9023C56.9336-49.9023 58.3008-51.2695 58.3008-53.3691L58.3008-59.6191C58.3008-61.7188 56.9336-63.0859 54.9316-63.0859L35.1074-63.0859C33.1055-63.0859 31.7383-61.7188 31.7383-59.6191L31.7383-53.3691C31.7383-51.2695 33.1055-49.9023 35.1074-49.9023ZM12.207-0.341797C12.207 7.76367 17.8223 13.1836 26.2207 13.1836L64.8438 13.1836C72.6562 13.1836 77.832 7.76367 77.832-0.390625L77.832-70.3125C77.832-78.4668 72.6562-83.8867 64.8438-83.8867L26.2207-83.8867C17.8223-83.8867 12.207-78.4668 12.207-70.3613ZM26.3672-5.76172L26.3672-64.9414C26.3672-67.1875 27.7832-68.457 29.9316-68.457L60.1562-68.457C62.2559-68.457 63.6719-67.0898 63.6719-64.8926L63.6719-5.81055C63.6719-3.61328 62.2559-2.24609 60.1562-2.24609L29.9316-2.24609C27.7832-2.24609 26.3672-3.51562 26.3672-5.76172Z"/>
  </g>
  <g id="Heavy-S" transform="matrix(1 0 0 1 2592.84 696)">
   <path d="M33.8858-50.6053L53.7907-50.6053C55.7927-50.6053 57.1599-51.9725 57.1599-54.0721L57.1599-59.9649C57.1599-62.0645 55.7927-63.4317 53.7907-63.4317L33.8858-63.4317C31.8839-63.4317 30.5167-62.0645 30.5167-59.9649L30.5167-54.0721C30.5167-51.9725 31.8839-50.6053 33.8858-50.6053ZM12.7833-1.25223C12.7833 6.34616 18.1104 11.4664 26.0133 11.4664L62.4467 11.4664C69.9019 11.4664 74.9048 6.34616 74.9048-1.28953L74.9048-69.379C74.9048-77.0147 69.9019-82.135 62.4467-82.135L26.0133-82.135C18.1104-82.135 12.7833-77.0147 12.7833-69.4163ZM25.2608-5.68105L25.2608-64.9875C25.2608-67.3373 26.7575-68.6875 29.0673-68.6875L58.6465-68.6875C60.9305-68.6875 62.4157-67.2627 62.4157-64.9502L62.4157-5.71835C62.4157-3.40584 60.9305-1.98103 58.6465-1.98103L29.0673-1.98103C26.7575-1.98103 25.2608-3.33123 25.2608-5.68105Z"/>
  </g>
  <g id="Bold-S" transform="matrix(1 0 0 1 2297.45 696)">
   <path d="M32.5195-51.3916L52.5146-51.3916C54.5166-51.3916 55.8838-52.7588 55.8838-54.8584L55.8838-60.3516C55.8838-62.4512 54.5166-63.8184 52.5146-63.8184L32.5195-63.8184C30.5176-63.8184 29.1504-62.4512 29.1504-60.3516L29.1504-54.8584C29.1504-52.7588 30.5176-51.3916 32.5195-51.3916ZM13.4277-2.27051C13.4277 4.76074 18.4326 9.5459 25.7812 9.5459L59.7656 9.5459C66.8213 9.5459 71.6309 4.76074 71.6309-2.29492L71.6309-68.335C71.6309-75.3906 66.8213-80.1758 59.7656-80.1758L25.7812-80.1758C18.4326-80.1758 13.4277-75.3906 13.4277-68.3594ZM24.0234-5.59082L24.0234-65.0391C24.0234-67.5049 25.6104-68.9453 28.1006-68.9453L56.958-68.9453C59.4482-68.9453 61.0107-67.4561 61.0107-65.0146L61.0107-5.61523C61.0107-3.17383 59.4482-1.68457 56.958-1.68457L28.1006-1.68457C25.6104-1.68457 24.0234-3.125 24.0234-5.59082Z"/>
  </g>
  <g id="Semibold-S" transform="matrix(1 0 0 1 2001.64 696)">
   <path d="M31.5775-51.9337L51.6349-51.9337C53.6368-51.9337 55.004-53.3009 55.004-55.4005L55.004-60.6182C55.004-62.7178 53.6368-64.085 51.6349-64.085L31.5775-64.085C29.5756-64.085 28.2084-62.7178 28.2084-60.6182L28.2084-55.4005C28.2084-53.3009 29.5756-51.9337 31.5775-51.9337ZM13.8721-2.97256C13.8721 3.66768 18.6548 8.22178 25.6213 8.22178L57.9172 8.22178C64.6974 8.22178 69.3736 3.66768 69.3736-2.98809L69.3736-67.6151C69.3736-74.2709 64.6974-78.825 57.9172-78.825L25.6213-78.825C18.6548-78.825 13.8721-74.2709 13.8721-67.6307ZM23.1703-5.52861L23.1703-65.0746C23.1703-67.6204 24.8194-69.123 27.4341-69.123L55.7938-69.123C58.4263-69.123 60.0421-67.5894 60.0421-65.0591L60.0421-5.54414C60.0421-3.01387 58.4263-1.48018 55.7938-1.48018L27.4341-1.48018C24.8194-1.48018 23.1703-2.98281 23.1703-5.52861Z"/>
  </g>
  <g id="Medium-S" transform="matrix(1 0 0 1 1705.62 696)">
   <path d="M30.8633-52.3447L50.9678-52.3447C52.9697-52.3447 54.3369-53.7119 54.3369-55.8115L54.3369-60.8203C54.3369-62.9199 52.9697-64.2871 50.9678-64.2871L30.8633-64.2871C28.8613-64.2871 27.4941-62.9199 27.4941-60.8203L27.4941-55.8115C27.4941-53.7119 28.8613-52.3447 30.8633-52.3447ZM14.209-3.50488C14.209 2.83887 18.8232 7.21777 25.5 7.21777L56.5156 7.21777C63.0869 7.21777 67.6621 2.83887 67.6621-3.51367L67.6621-67.0693C67.6621-73.4219 63.0869-77.8008 56.5156-77.8008L25.5-77.8008C18.8232-77.8008 14.209-73.4219 14.209-67.0781ZM22.5234-5.48145L22.5234-65.1016C22.5234-67.708 24.2197-69.2578 26.9287-69.2578L54.9111-69.2578C57.6514-69.2578 59.3076-67.6904 59.3076-65.0928L59.3076-5.49023C59.3076-2.89258 57.6514-1.3252 54.9111-1.3252L26.9287-1.3252C24.2197-1.3252 22.5234-2.875 22.5234-5.48145Z"/>
  </g>
  <g id="Regular-S" transform="matrix(1 0 0 1 1409.81 696)">
   <path d="M29.9316-52.8809L50.0977-52.8809C52.0996-52.8809 53.4668-54.248 53.4668-56.3477L53.4668-61.084C53.4668-63.1836 52.0996-64.5508 50.0977-64.5508L29.9316-64.5508C27.9297-64.5508 26.5625-63.1836 26.5625-61.084L26.5625-56.3477C26.5625-54.248 27.9297-52.8809 29.9316-52.8809ZM14.6484-4.19922C14.6484 1.75781 19.043 5.9082 25.3418 5.9082L54.6875 5.9082C60.9863 5.9082 65.4297 1.75781 65.4297-4.19922L65.4297-66.3574C65.4297-72.3145 60.9863-76.4648 54.6875-76.4648L25.3418-76.4648C19.043-76.4648 14.6484-72.3145 14.6484-66.3574ZM21.6797-5.41992L21.6797-65.1367C21.6797-67.8223 23.4375-69.4336 26.2695-69.4336L53.7598-69.4336C56.6406-69.4336 58.3496-67.8223 58.3496-65.1367L58.3496-5.41992C58.3496-2.73438 56.6406-1.12305 53.7598-1.12305L26.2695-1.12305C23.4375-1.12305 21.6797-2.73438 21.6797-5.41992Z"/>
  </g>
  <g id="Light-S" transform="matrix(1 0 0 1 1114.55 696)">
   <path d="M28.3726-53.5015L48.7656-53.5015C50.8281-53.5015 52.1802-54.8535 52.1802-56.9834L52.1802-61.3867C52.1802-63.5166 50.8281-64.8686 48.7656-64.8686L28.3726-64.8686C26.3101-64.8686 24.958-63.5166 24.958-61.3867L24.958-56.9834C24.958-54.8535 26.3101-53.5015 28.3726-53.5015ZM14.6484-5.12255C14.6484 0.849617 18.604 4.65187 24.812 4.65187L52.3262 4.65187C58.5191 4.65187 62.5235 0.849617 62.5235-5.12255L62.5235-65.4038C62.5235-71.376 58.5191-75.1782 52.3262-75.1782L24.812-75.1782C18.604-75.1782 14.6484-71.376 14.6484-65.4038ZM20.0752-5.96484L20.0752-64.5615C20.0752-67.9736 21.9692-69.7515 25.4824-69.7515L51.6558-69.7515C55.2026-69.7515 57.063-67.9736 57.063-64.5615L57.063-5.96484C57.063-2.55274 55.2026-0.759768 51.6558-0.759768L25.4824-0.759768C21.9692-0.759768 20.0752-2.55274 20.0752-5.96484Z"/>
  </g>
  <g id="Thin-S" transform="matrix(1 0 0 1 819.758 696)">
   <path d="M26.3106-54.3223L47.0039-54.3223C49.1465-54.3223 50.4785-55.6543 50.4785-57.8242L50.4785-61.7871C50.4785-63.957 49.1465-65.2891 47.0039-65.2891L26.3106-65.2891C24.168-65.2891 22.836-63.957 22.836-61.7871L22.836-57.8242C22.836-55.6543 24.168-54.3223 26.3106-54.3223ZM14.6484-6.34373C14.6484-0.351546 18.0234 2.99026 24.1113 2.99026L49.2032 2.99026C55.2559 2.99026 58.6797-0.351546 58.6797-6.34373L58.6797-64.1426C58.6797-70.1348 55.2559-73.4766 49.2032-73.4766L24.1113-73.4766C18.0234-73.4766 14.6484-70.1348 14.6484-64.1426ZM17.9532-6.68554L17.9532-63.8008C17.9532-68.1738 20.0274-70.1719 24.4414-70.1719L48.8731-70.1719C53.3008-70.1719 55.3614-68.1738 55.3614-63.8008L55.3614-6.68554C55.3614-2.3125 53.3008-0.279304 48.8731-0.279304L24.4414-0.279304C20.0274-0.279304 17.9532-2.3125 17.9532-6.68554Z"/>
  </g>
  <g id="Ultralight-S" transform="matrix(1 0 0 1 524.031 696)">
   <path d="M25.2544-54.7427L46.1016-54.7427C48.2852-54.7427 49.607-56.0644 49.607-58.2549L49.607-61.9922C49.607-64.1826 48.2852-65.5044 46.1016-65.5044L25.2544-65.5044C23.0708-65.5044 21.7491-64.1826 21.7491-61.9922L21.7491-58.2549C21.7491-56.0644 23.0708-54.7427 25.2544-54.7427ZM14.6484-6.96922C14.6484-0.966775 17.7261 2.13919 23.7525 2.13919L47.6036 2.13919C53.5845 2.13919 56.711-0.966775 56.711-6.96922L56.711-63.4966C56.711-69.499 53.5845-72.605 47.6036-72.605L23.7525-72.605C17.7261-72.605 14.6484-69.499 14.6484-63.4966ZM16.8662-7.05467L16.8662-63.4111C16.8662-68.2764 19.0327-70.3872 23.9082-70.3872L47.4478-70.3872C52.3267-70.3872 54.4898-68.2764 54.4898-63.4111L54.4898-7.05467C54.4898-2.18946 52.3267-0.0332117 47.4478-0.0332117L23.9082-0.0332117C19.0327-0.0332117 16.8662-2.18946 16.8662-7.05467Z"/>
  </g>
 </g>
</svg>
